<svg width="24" height="24" viewBox="0 0 24 24" fill="none" xmlns="http://www.w3.org/2000/svg">
<g clip-path="url(#clip0_103_421)">
<path fill-rule="evenodd" clip-rule="evenodd" d="M12.4998 1.66675C6.51677 1.66675 1.6665 6.51697 1.6665 12.5001C1.6665 18.4831 6.51677 23.3334 12.4998 23.3334C18.483 23.3334 23.3332 18.4832 23.3332 12.5001C23.3332 6.51697 18.483 1.66675 12.4998 1.66675ZM12.4998 21.1667C7.72105 21.1667 3.83319 17.2789 3.83319 12.5001C3.83319 7.72124 7.721 3.83343 12.4998 3.83343C17.2787 3.83343 21.1665 7.72124 21.1665 12.5001C21.1665 17.2789 17.2787 21.1667 12.4998 21.1667ZM13.8564 8.16675C13.8564 8.95223 13.2845 9.52093 12.5108 9.52093C11.7059 9.52093 11.148 8.95218 11.148 8.15172C11.148 7.38238 11.721 6.81262 12.5108 6.81262C13.2845 6.81262 13.8564 7.38238 13.8564 8.16675ZM11.4189 11.4167H13.5855V17.9167H11.4189V11.4167Z" fill="#1E1B18"/>
</g>
<defs>
<clipPath id="clip0_103_421">
<rect width="24" height="24" fill="white"/>
</clipPath>
</defs>
</svg>
