<svg width="23" height="23" viewBox="0 0 23 23" fill="none" xmlns="http://www.w3.org/2000/svg">
<path fill-rule="evenodd" clip-rule="evenodd" d="M11.4998 0.666748C5.51677 0.666748 0.666504 5.51697 0.666504 11.5001C0.666504 17.4831 5.51677 22.3334 11.4998 22.3334C17.483 22.3334 22.3332 17.4832 22.3332 11.5001C22.3332 5.51697 17.483 0.666748 11.4998 0.666748ZM11.4998 20.1667C6.72105 20.1667 2.83319 16.2789 2.83319 11.5001C2.83319 6.72124 6.721 2.83343 11.4998 2.83343C16.2787 2.83343 20.1665 6.72124 20.1665 11.5001C20.1665 16.2789 16.2787 20.1667 11.4998 20.1667ZM12.8564 7.16675C12.8564 7.95223 12.2845 8.52093 11.5108 8.52093C10.7059 8.52093 10.148 7.95218 10.148 7.15172C10.148 6.38238 10.721 5.81262 11.5108 5.81262C12.2845 5.81262 12.8564 6.38238 12.8564 7.16675ZM10.4189 10.4167H12.5855V16.9167H10.4189V10.4167Z" fill="#1E1B18"/>
</svg>
