<svg width="24" height="24" viewBox="0 0 24 24" fill="none" xmlns="http://www.w3.org/2000/svg">
<g clip-path="url(#clip0_103_415)">
<path d="M15.795 17.405L17.405 15.795L13.15 11.54V6.25H10.85V12.46L15.795 17.405ZM12 23.5C10.4092 23.5 8.91416 23.1979 7.515 22.5938C6.11583 21.9897 4.89875 21.1705 3.86375 20.1362C2.82875 19.102 2.00957 17.8849 1.4062 16.485C0.802835 15.0851 0.500768 13.5901 0.500001 12C0.499235 10.4099 0.801301 8.91493 1.4062 7.515C2.0111 6.11507 2.83028 4.89798 3.86375 3.86375C4.89722 2.82952 6.1143 2.01033 7.515 1.4062C8.9157 0.802067 10.4107 0.5 12 0.5C13.5893 0.5 15.0843 0.802067 16.485 1.4062C17.8857 2.01033 19.1028 2.82952 20.1362 3.86375C21.1697 4.89798 21.9893 6.11507 22.5949 7.515C23.2006 8.91493 23.5023 10.4099 23.5 12C23.4977 13.5901 23.1956 15.0851 22.5938 16.485C21.992 17.8849 21.1728 19.102 20.1362 20.1362C19.0997 21.1705 17.8826 21.99 16.485 22.5949C15.0874 23.1998 13.5924 23.5015 12 23.5ZM12 21.2C14.5492 21.2 16.72 20.3041 18.5124 18.5124C20.3049 16.7207 21.2008 14.5499 21.2 12C21.1992 9.45006 20.3034 7.27925 18.5124 5.48755C16.7215 3.69585 14.5507 2.8 12 2.8C9.4493 2.8 7.27848 3.69623 5.48755 5.4887C3.69662 7.28116 2.80077 9.4516 2.8 12C2.79923 14.5484 3.69547 16.7192 5.4887 18.5124C7.28193 20.3057 9.45236 21.2015 12 21.2Z" fill="#1E1B18"/>
</g>
<defs>
<clipPath id="clip0_103_415">
<rect width="24" height="24" rx="5" fill="white"/>
</clipPath>
</defs>
</svg>
