<svg width="21" height="23" viewBox="0 0 21 23" fill="none" xmlns="http://www.w3.org/2000/svg">
<path d="M2.5 9.5C2.5 5.729 2.5 3.843 3.672 2.672C4.844 1.501 6.729 1.5 10.5 1.5H12C15.771 1.5 17.657 1.5 18.828 2.672C19.999 3.844 20 5.729 20 9.5V13.5C20 17.271 20 19.157 18.828 20.328C17.656 21.499 15.771 21.5 12 21.5H10.5C6.729 21.5 4.843 21.5 3.672 20.328C2.501 19.156 2.5 17.271 2.5 13.5V9.5Z" stroke="#1E1B18" stroke-width="1.5" stroke-linecap="round" stroke-linejoin="round"/>
<path d="M8.3 11.474C7.873 10.73 7.667 10.123 7.543 9.507C7.359 8.597 7.78 7.707 8.476 7.139C8.771 6.899 9.108 6.981 9.282 7.294L9.675 7.999C9.986 8.557 10.142 8.837 10.111 9.133C10.081 9.429 9.871 9.67 9.451 10.153L8.3 11.474ZM8.3 11.474C9.20011 13.0164 10.4836 14.2999 12.026 15.2M12.026 15.2C12.77 15.627 13.377 15.833 13.993 15.957C14.903 16.141 15.793 15.72 16.361 15.024C16.601 14.729 16.519 14.392 16.206 14.218L15.502 13.825C14.942 13.514 14.663 13.358 14.367 13.389C14.071 13.419 13.83 13.629 13.347 14.049L12.026 15.2ZM3.5 5.5H1M3.5 11.5H1M3.5 17.5H1" stroke="#1E1B18" stroke-width="1.5" stroke-linecap="round" stroke-linejoin="round"/>
</svg>
