<svg width="352" height="31" viewBox="0 0 352 31" fill="none" xmlns="http://www.w3.org/2000/svg">
<path d="M32.3345 4.15699L53.2208 2.25593L72.3075 10.063L92.5855 12.7498L109.873 11.7612L126.222 6.15944L141.43 0L127.514 13.3328L111.469 25.2208L92.6362 30.5437L73.803 29.7833L55.9077 23.6746L37.2519 22.1791L18.2413 22.8381L0.776855 28.0597L15.1742 14.9297L32.3345 4.15699Z" fill="#EF4125"/>
<path d="M318.686 4.51186L298.002 2.88962L279.068 10.4939L258.562 12.9019L241.224 12.0401L225.052 5.77923L209.869 0L223.633 13.3581L239.855 24.9419L258.511 31L277.091 28.6934L295.011 22.8381L313.971 20.8357L332.754 23.7253L351.688 27.9076L335.694 15.3352L318.686 4.51186Z" fill="#EF4125"/>
</svg>
