<svg width="325" height="57" viewBox="0 0 325 57" fill="none" xmlns="http://www.w3.org/2000/svg">
<path d="M98.7094 44.0779L97.1834 43.1711L95.361 42.6359L93.1936 43.0075L91.6897 44.3699L90.6016 46.0463L90.1504 48.1871L90.4335 50.4695L91.6057 52.1371L93.2069 53.1899L95.2504 53.641L97.3294 53.1191L98.8598 52.1062L100.917 53.5791L98.5635 55.344L96.9844 56.1048L95.2283 56.0606L92.0568 55.375L89.425 53.9374L87.6247 51.4736L87.1426 48.1871L87.9476 44.9758L89.5665 42.4678L92.1851 41.0214L95.361 40.4331L96.887 40.3668L98.3688 40.9064L99.7622 41.5566L100.815 42.6138L98.7094 44.0735V44.0779Z" fill="#EF4125"/>
<path d="M103.695 48.1783L104.018 44.8697L105.845 42.4811L108.397 40.9816L111.573 40.1898L114.846 40.8047L117.385 42.4501L118.995 44.9537L119.765 48.1783L119.216 51.4515L117.456 53.9639L114.881 55.6713L111.577 55.9898L108.419 55.3882L105.884 53.8268L104.009 51.4471L103.695 48.1783ZM106.269 48.1783L106.928 50.3545L107.835 52.1813L109.458 53.411L111.595 53.5879L113.669 53.2385L115.35 52.1548L116.491 50.4297L116.699 48.1783L116.27 46.064L115.293 44.33L113.66 43.2375L111.599 42.5519L109.423 42.9588L107.786 44.2018L106.937 46.0595L106.269 48.1783Z" fill="#EF4125"/>
<path d="M124.316 40.8312L126.629 40.5791L129.053 40.7516L131.482 40.818L134.003 40.6101L133.963 43.0915L131.57 43.0296L129.226 42.95L126.934 43.1004L127.027 45.0997L126.939 47.0946L129.084 47.0105L131.291 47.2848L133.388 47.2671L133.428 49.3372L131.296 49.5451L129.089 49.3416L126.753 49.2753L126.917 51.5179L127.063 53.6278L126.912 55.7863L124.276 55.6403L124.219 53.5924L124.351 51.4471L124.307 49.3018L124.104 47.1565L124.223 45.0068L124.152 42.8571L124.311 40.8357L124.316 40.8312Z" fill="#EF4125"/>
<path d="M138.214 40.8357L140.589 40.5835L143.079 40.756L145.57 40.8224L148.153 40.6145L148.113 43.1004L145.636 43.0384L143.208 42.9588L140.828 43.1136L140.925 44.9626L140.837 46.8071L143.079 46.7275L145.38 47.0017L147.569 46.9884L147.604 49.0541L145.375 49.262L143.075 49.0585L140.651 48.9922L140.815 51.248L140.894 53.2252L143.327 53.3093L145.884 53.4951L148.427 53.3845L148.325 55.6492L146.375 55.6404L144.309 55.8438L142.239 55.7244L140.169 55.7952L138.099 55.7465L138.209 53.6012L137.922 51.4559L137.993 49.3106L138.24 47.1654L137.957 45.0156L138.201 42.8704L138.209 40.8445L138.214 40.8357Z" fill="#EF4125"/>
<path d="M153.156 40.8357L155.531 40.5835L158.021 40.756L160.512 40.8224L163.095 40.6145L163.055 43.1004L160.578 43.0384L158.15 42.9588L155.77 43.1136L155.867 44.9626L155.779 46.8071L158.021 46.7275L160.321 47.0017L162.511 46.9884L162.546 49.0541L160.317 49.262L158.017 49.0585L155.593 48.9922L155.757 51.248L155.836 53.2252L158.269 53.3093L160.826 53.4951L163.369 53.3845L163.267 55.6492L161.317 55.6404L159.251 55.8438L157.181 55.7244L155.111 55.7952L153.041 55.7465L153.151 53.6012L152.864 51.4559L152.935 49.3106L153.182 47.1654L152.899 45.0156L153.142 42.8704L153.151 40.8445L153.156 40.8357Z" fill="#EF4125"/>
<path d="M183.115 43.7152L181.965 43.0384L180.457 42.5032L179.497 42.5607L178.745 43.1446L178.108 43.7108L177.794 44.6175L177.935 45.5331L178.643 46.0374L179.55 46.4134L180.695 46.8513L182.217 47.329L183.509 48.3552L184.508 49.5627L184.955 51.3321L184.734 53.5039L183.38 54.8884L181.629 55.658L179.581 56.1711L176.648 55.7642L174.37 53.9595L176.396 52.314L177.803 53.4331L179.625 54.0126L180.607 53.8489L181.408 53.2739L182.12 52.6723L182.297 51.6328L182.071 50.6464L181.385 49.8724L180.165 49.6379L178.851 49.1248L177.581 48.3862L176.21 47.8377L175.516 46.4886L174.932 44.7591L175.547 42.7774L176.812 41.4151L178.559 40.557L180.58 40.2075L182.934 40.6675L185.057 42.0211L183.111 43.7417L183.115 43.7152Z" fill="#EF4125"/>
<path d="M189.714 40.8357L192.359 40.6057L192.235 42.7288L192.169 44.7547L192.368 46.6788L194.624 46.7053L196.968 46.7894L199.37 46.8513L199.233 44.7591L199.166 42.7332L199.259 40.641L202.081 40.5968L201.864 42.8571L201.833 45.0024L201.887 47.1477L202.125 49.293L201.922 51.4427L201.807 53.5924L202.015 55.7731L199.197 55.8881L199.255 53.5216L199.441 51.2967L199.33 49.0585L196.972 48.9214L194.628 48.9656L192.35 49.1426L192.262 51.2923L192.332 53.5172L192.284 55.7377L189.683 55.6492L189.435 53.5924L189.506 51.4471L189.754 49.3018L189.47 47.1565L189.714 45.0068L189.457 42.8527L189.718 40.8401L189.714 40.8357Z" fill="#EF4125"/>
<path d="M206.704 48.1783L207.027 44.8697L208.853 42.4811L211.406 40.9816L214.581 40.1898L217.855 40.8047L220.394 42.4501L222.004 44.9537L222.773 48.1783L222.225 51.4515L220.464 53.9639L217.89 55.6713L214.586 55.9898L211.428 55.3882L208.893 53.8268L207.018 51.4471L206.704 48.1783ZM209.278 48.1783L209.937 50.3545L210.844 52.1813L212.467 53.411L214.604 53.5879L216.678 53.2385L218.359 52.1548L219.5 50.4297L219.708 48.1783L219.279 46.064L218.301 44.33L216.674 43.2375L214.608 42.5519L212.432 42.9588L210.795 44.2018L209.946 46.0595L209.278 48.1783Z" fill="#EF4125"/>
<path d="M227.325 40.8312L229.665 40.5791L232.116 40.7516L234.425 41.048L236.309 41.5965L237.446 43.0296L237.773 45.0555L237.233 47.1123L236.092 48.5941L234.221 49.4256L231.939 49.6026L229.984 49.6203L229.754 51.5886L229.723 53.6631L229.816 55.658L227.117 55.8438L227.268 53.5924L227.383 51.4471L227.162 49.3018L227.016 47.1565L227.144 45.0068L227.33 42.8615L227.316 40.8357L227.325 40.8312ZM231.757 47.4352L232.991 47.0459L234.097 46.8734L234.911 46.2232L234.96 45.0599L234.756 44.0293L234.088 43.3348L233.053 42.9456L231.841 43.0384L229.997 43.0561L229.975 45.113L230.001 47.1742L231.753 47.4352H231.757Z" fill="#EF4125"/>
<path d="M16.0344 25.6771L14.557 23.722L13.4689 21.413L12.2657 19.1572L11.328 19.2147L11.244 22.4038L11.1334 25.5975L8.50153 25.4648L5.85641 25.6328L3.2113 25.6771L0.495407 25.5444L0.358285 22.7489L0.641375 20.0153V17.2861L0.535216 14.5614L0.21674 11.8366L0.415788 9.10749L0.5131 6.37833L0.212317 3.64917L0 0.862507L2.8132 0.734232L5.42293 0.875776L8.02382 0.698845L10.6335 0.818274L13.2389 0.756348L16.0565 0.681152L18.7812 1.38445L21.3777 2.44604L23.4301 4.35247L24.558 6.87816L25.2657 9.61174L24.7836 12.3807L23.1912 14.6277L21.3069 16.3882L22.5322 18.6087L24.2661 20.5461L25.624 22.7489L27.097 24.872L24.3192 25.1817L21.5413 25.5267L18.7458 25.7169L16.0388 25.6815L16.0344 25.6771ZM12.9204 8.36438L11.0582 8.68728L10.9211 10.8414L10.9122 13.053L12.54 12.9336L14.5924 12.5798L15.5434 10.7972L12.9204 8.3688V8.36438Z" fill="#822319"/>
<path d="M42.804 25.8496L40.1412 26.0044L37.6023 25.1905L35.2447 24.0272L32.9667 22.6472L31.3345 20.5284L30.2596 18.1L29.7023 15.5213L29.3042 12.8938L29.4856 10.2487L30.3481 7.7363L31.6176 5.40523L33.639 3.69785L35.7843 2.24701L38.1419 1.15447L40.6366 0.283081L43.2817 0.327314L45.8428 0.623673L48.4216 0.906763L50.9163 1.72949L53.0129 3.31745L54.6097 5.361L55.9677 7.5461L56.5427 10.0585L56.8214 12.6107L56.8568 15.3886L56.0562 18.0514L54.915 20.5771L53.0881 22.6604L50.7748 24.1466L48.342 25.5134L45.5907 26.0044L42.8085 25.854L42.804 25.8496ZM43.0606 9.31983L40.473 10.638L39.2787 13.2123L40.2385 15.9945L42.9987 16.7863L45.6349 15.8486L46.7009 13.1858L45.772 10.4655L43.0606 9.32868V9.31983Z" fill="#822319"/>
<path d="M76.8062 25.6505L75.9525 23.8635L75.5013 21.7669L72.8606 21.7006L70.3305 21.9792L69.8042 23.8282L69.1893 25.7567L66.5044 25.509L63.7929 25.5577L61.0859 25.4825L58.3125 25.2171L59.122 22.6781L60.3118 20.3647L61.2319 17.954L62.0634 15.508L62.6915 12.9867L63.8018 10.6424L64.8147 8.26708L65.4605 5.75466L66.1859 3.26878L67.2431 0.858093L70.1934 1.03502L73.1039 0.88021L76.0233 0.999638L78.8719 0.897903L80.0042 3.20685L80.8358 5.71485L81.8753 8.14322L82.782 10.6247L83.6225 13.1327L84.9008 15.4682L85.7854 17.954L86.4755 20.5195L87.7494 22.8595L88.4615 25.3099L85.6041 25.6771L82.6361 25.6284L79.6725 25.7213L76.8018 25.6594L76.8062 25.6505ZM72.7987 10.6866L72.1441 13.6944L71.1621 16.459L74.4574 16.543L73.4268 13.7121L72.7987 10.6866Z" fill="#822319"/>
<path d="M107.473 25.6771L105.995 23.722L104.907 21.413L103.704 19.1572L102.766 19.2147L102.682 22.4038L102.572 25.5975L99.9399 25.4648L97.2948 25.6328L94.6497 25.6771L91.9338 25.5444L91.7967 22.7489L92.0798 20.0153V17.2861L91.9736 14.5614L91.6552 11.8366L91.8542 9.10749L91.9515 6.37833L91.6507 3.64917L91.4473 0.862507L94.2605 0.734232L96.8702 0.875776L99.4711 0.698845L102.081 0.818274L104.686 0.756348L107.504 0.681152L110.228 1.38445L112.825 2.44604L114.877 4.35247L116.005 6.87816L116.713 9.61174L116.231 12.3807L114.638 14.6277L112.754 16.3882L113.979 18.6087L115.713 20.5461L117.071 22.7489L118.544 24.872L115.766 25.1817L112.989 25.5267L110.193 25.7169L107.486 25.6815L107.473 25.6771ZM104.363 8.36438L102.501 8.68728L102.364 10.8414L102.355 13.053L103.983 12.9336L106.035 12.5798L106.986 10.7972L104.363 8.3688V8.36438Z" fill="#822319"/>
<path d="M132.924 25.4294L130.429 25.6771L127.797 25.4338L125.161 25.3188L122.41 25.5179V22.7003L122.48 19.9844L122.551 17.2685L122.326 14.557L122.224 11.8455L122.268 9.13407L122.175 6.41818L122.472 3.69787L122.427 1.11025L125.028 1.08814L127.757 0.791779L130.491 1.01294L133.07 1.07044L133.251 3.65806L133.406 6.39607L133.242 9.13407L133.008 11.8721L133.114 14.6101L132.942 17.3481L132.977 20.0905L133.198 22.8374L132.928 25.4383L132.924 25.4294Z" fill="#822319"/>
<path d="M166.143 25.2127L163.781 25.5665L161.259 25.4338H158.738L156.151 25.77L154.518 23.2974L152.957 20.8557L151.396 18.4097L149.706 16.1626L149.954 19.1483L150.002 22.2314L150.153 25.4206L147.419 25.2392L144.823 25.2746L142.226 25.4073L139.519 25.7125L139.661 22.8727L139.745 20.1436L139.435 17.4188L139.214 14.6941L139.311 11.965L139.479 9.23579L139.307 6.50663L139.408 3.77305L139.276 1.12793L141.709 0.897924L144.243 1.00408L146.778 0.889078L149.312 0.915617L150.865 3.40592L152.807 5.63525L154.403 8.10344L155.96 10.7618L155.783 8.24056L156.053 5.88295L155.739 3.52535L155.89 1.15005L158.561 1.11024L161.22 0.990813L163.878 0.835999L166.616 0.871385L166.651 3.65362L166.532 6.36067L166.373 9.06771L166.346 11.7792L166.603 14.4951L166.28 17.2021L166.306 19.9136L166.51 22.6339L166.143 25.2082V25.2127Z" fill="#822319"/>
<path d="M199.914 25.3984L198.437 23.4433L197.349 21.1344L196.146 18.8785L195.208 18.936L195.124 22.1252L195.013 25.3188L192.381 25.1861L189.736 25.3542L187.091 25.3984L184.375 25.2657L184.238 22.4702L184.521 19.7366V17.0075L184.415 14.2827L184.097 11.558L184.296 8.82883L184.393 6.09967L184.092 3.37051L183.889 0.583851L186.702 0.455576L189.312 0.59712L191.912 0.420189L194.522 0.539618L197.128 0.477692L199.945 0.402496L202.67 1.1058L205.266 2.16738L207.319 4.07381L208.447 6.5995L209.154 9.33309L208.672 12.1021L207.08 14.3491L205.196 16.1095L206.421 18.33L208.155 20.2674L209.513 22.4702L210.986 24.5934L208.208 24.903L205.43 25.248L202.634 25.4382L199.927 25.4028L199.914 25.3984ZM196.8 8.0813L194.938 8.4042L194.801 10.5583L194.792 12.77L196.42 12.6505L198.472 12.2967L199.423 10.5141L196.8 8.08572V8.0813Z" fill="#822319"/>
<path d="M226.684 25.5665L224.021 25.7213L221.482 24.9075L219.125 23.7441L216.847 22.3641L215.214 20.2453L214.14 17.8169L213.582 15.2382L213.184 12.6108L213.365 9.96564L214.228 7.45322L215.497 5.12215L217.519 3.41477L219.664 1.96393L222.022 0.871385L224.517 0L227.162 0.0442327L229.723 0.340592L232.301 0.623682L234.796 1.44641L236.893 3.03437L238.49 5.07792L239.848 7.26302L240.423 9.77543L240.701 12.3277L240.737 15.1055L239.936 17.7683L238.795 20.294L236.968 22.3773L234.655 23.8636L232.222 25.2304L229.471 25.7213L226.688 25.5709L226.684 25.5665ZM226.94 9.03675L224.353 10.3549L223.159 12.9292L224.118 15.7115L226.879 16.5032L229.515 15.5655L230.581 12.9027L229.652 10.1824L226.94 9.04559V9.03675Z" fill="#822319"/>
<path d="M260.686 25.3675L259.832 23.5805L259.381 21.4838L256.74 21.4175L254.21 21.6961L253.684 23.5451L253.069 25.4736L250.384 25.2259L247.672 25.2746L244.965 25.1994L242.192 24.934L243.001 22.395L244.191 20.0816L245.111 17.671L245.943 15.2249L246.571 12.7036L247.681 10.3593L248.694 7.984L249.34 5.47158L250.065 2.9857L251.122 0.575012L254.073 0.751943L256.983 0.597129L259.903 0.716557L262.751 0.614822L263.884 2.92377L264.715 5.43177L265.755 7.86014L266.661 10.3416L267.502 12.8496L268.78 15.1851L269.665 17.671L270.355 20.2365L271.629 22.5764L272.341 25.0269L269.483 25.394L266.515 25.3453L263.552 25.4382L260.681 25.3763L260.686 25.3675ZM256.678 10.4079L256.023 13.4158L255.042 16.1803L258.337 16.2644L257.306 13.4335L256.678 10.4079Z" fill="#822319"/>
<path d="M295.444 9.79753L293.644 8.62094L291.6 7.45762L289.273 6.96664L287.517 8.85095L289.481 10.2929L292.188 10.9874L294.816 11.9119L297.262 13.261L298.828 15.6274L299.182 18.4406L298.788 21.1123L297.058 23.1381L294.878 24.5447L292.405 25.425L289.817 26.1017L287.141 25.9779L284.355 25.6948L281.55 25.4603L278.808 24.7128L276.402 23.1956L274.473 21.3334L276.269 19.0112L278.264 16.8659L280.029 18.3433L282.369 19.1351L284.753 19.6703L286.703 17.8302L284.775 16.2378L282.112 15.5389L279.365 15.1055L277.008 13.6015L275.747 11.182L275 8.53248L275.707 5.95371L276.809 3.51649L279.016 1.97719L281.488 0.99522L284.094 0.429041L286.761 0.18576L289.654 0.446734L292.494 1.03945L295.148 2.20277L297.505 3.85708L299.553 5.75908L297.726 8.02822L295.448 9.80196L295.444 9.79753Z" fill="#822319"/>
<path d="M324.628 7.94418L322.2 8.21843L319.595 8.01938L319.572 10.9078L319.931 13.7519V16.6005L319.904 19.4535L319.878 22.3066L320.121 25.2215L317.312 25.4028H314.565L311.818 25.5488L309.16 25.3365L309.191 22.9656L309.076 20.4886L308.744 18.016L308.926 15.5345L309.005 13.0531L308.691 10.576L308.532 8.25381L306.055 8.16535L303.529 7.98842L303.41 5.591L303.52 3.08301L303.388 0.672321L305.997 0.473274L308.691 0.619242L311.385 0.544046L314.079 0.610396L316.773 0.747517L319.471 0.415771L322.169 0.504237L324.752 0.756364L325 3.11839L324.681 5.59542L324.633 7.94418H324.628Z" fill="#822319"/>
<path d="M61.8107 46.1568L65.4555 45.8295L68.7862 47.1875L72.3248 47.6608L75.3415 47.4883L78.1989 46.5063L80.8485 45.4359L78.4201 47.7625L75.6201 49.8326L72.3337 50.7659L69.0472 50.6288L65.9243 49.5672L62.6688 49.3062L59.3558 49.4168L56.3037 50.3324L58.8206 48.0412L61.8107 46.1568Z" fill="#EF4125"/>
<path d="M263.158 46.2187L259.553 45.9401L256.249 47.2626L252.666 47.6873L249.645 47.5369L246.818 46.4399L244.169 45.4358L246.575 47.7625L249.402 49.7883L252.657 50.8455L255.899 50.4385L259.027 49.4212L262.335 49.0673L265.613 49.576L268.922 50.3058L266.126 48.1119L263.158 46.2187Z" fill="#EF4125"/>
</svg>
