<svg width="89" height="124" viewBox="0 0 89 124" fill="none" xmlns="http://www.w3.org/2000/svg">
<path d="M85.9809 90.6319L85.5909 94.7995L83.3397 98.3134L81.2595 101.814L79.8705 105.825L76.8939 108.746L73.5821 111.238L70.7561 114.214L67.8001 117.19L63.7493 118.443L60.0064 120.071L56.1745 121.467L52.0142 122.754L54.7649 119.546L56.6877 115.869L58.7268 112.308L60.8412 108.705L62.2986 104.742L62.6681 100.533L62.0728 96.3726L61.4707 92.2594L60.4169 88.2416L58.7405 84.4281L57.6046 80.1175L57.5225 84.4622L56.4414 88.4051L55.5245 92.3752L53.5196 88.228L51.4326 84.1013L48.6887 80.3695L46.2117 76.3857L45.6232 71.6257L44.3094 75.732L42.9135 79.6953L42.7356 83.9038L42.4688 88.0373L42.4277 92.5727L42.7219 97.1693L45.1237 101.201L46.0953 105.695L46.5538 110.292L45.3358 114.8L45.4727 119.451L43.8715 124L38.9722 123.966L41.4492 119.281L41.4629 114.548L42.1745 109.958L42.0856 105.961L41.1208 102.086L39.8343 98.3134L38.7053 94.493L38.5548 90.4889L38.11 86.5188L38.8901 82.3239L39.5127 78.1359L39.4854 73.8525L40.676 69.7394L41.1208 66.137L37.8842 67.9279L36.2351 71.7483L33.5049 74.908L32.0269 78.7556L31.6027 82.8619L30.6174 86.8456L30.4874 90.9383L31.1374 94.9902L31.37 98.9058L27.8735 96.6245L26.4434 92.5727L24.6369 88.7932L23.6653 92.7906L22.3652 96.7607L22.5226 100.922L22.8852 105.069L24.0827 109.059L25.8891 112.791L27.5793 116.605L30.5421 119.567L32.7933 122.679L28.9341 122.195L24.8696 121.024L20.9898 119.335L17.6438 116.72L14.0035 114.582L11.2665 111.375L8.31046 108.426L5.93608 104.987L4.06804 101.255L2.56266 97.3804L1.15993 93.4239L0.523573 89.1201L0.147217 84.7822L0.715165 80.4444L0.448293 76.0997L1.4131 71.8504L1.27626 67.424L3.04165 63.379L3.84224 59.3884L5.36813 55.6226L6.58611 51.7546L7.39356 47.7777L8.57047 43.828L8.00254 39.7489L7.48934 35.7584L10.1443 37.2565L12.286 39.8919L15.3104 43.2015L16.1521 47.6483L17.808 51.7206L17.6985 56.181L18.8686 56.6986L21.0035 52.9259L23.0015 49.3031L24.6095 45.4828L24.9654 41.499L25.5675 37.5902L25.6017 33.6269L25.9781 29.6704L27.3671 25.8092L27.1824 21.7846L28.0172 17.869L29.6389 14.1917L31.678 10.5076L34.7845 7.65424L38.0348 5.07332L41.0797 2.23362L44.7063 0L45.0005 0.517546L44.2957 4.7873L44.2478 9.00258L44.5968 13.1634L44.9663 17.4944L47.4023 21.09L48.935 25.1487L51.85 28.3425L54.2586 31.8836L57.1051 35.0842L59.4384 38.6934L62.4081 41.8191L65.0425 45.5645L66.8353 49.7866L68.5391 54.0019L70.0103 58.3329L70.7082 62.8478L70.7492 67.2402L73.1305 64.2438L74.6837 60.5325L75.9291 56.6713L75.7444 52.6059L75.936 48.6153L76.1891 44.6043L75.628 41.356L75.9017 40.4367L78.0161 43.8893L80.4316 47.1989L82.0122 50.9783L83.9623 54.5875L85.3514 58.4351L86.5146 62.3643L87.3768 66.3753L88.1637 70.4067L88.5674 74.5062L87.5615 78.5989L88.2595 82.7325L86.8499 86.6686L85.9809 90.6319Z" fill="#EF4125"/>
</svg>
