<svg width="20" height="22" viewBox="0 0 20 22" fill="none" xmlns="http://www.w3.org/2000/svg">
<path fill-rule="evenodd" clip-rule="evenodd" d="M5.0126 2.26045C5.13219 1.13044 6.08828 0.25 7.25 0.25H12.25C13.4117 0.25 14.3678 1.13044 14.4874 2.26045C15.2505 2.27599 15.9103 2.31546 16.4736 2.41895C17.2316 2.55818 17.8767 2.82342 18.4017 3.34835C19.0036 3.95027 19.2625 4.70814 19.3835 5.60825C19.5 6.47522 19.5 7.57754 19.5 8.94513V15.0549C19.5 16.4225 19.5 17.5248 19.3835 18.3918C19.2625 19.2919 19.0036 20.0497 18.4017 20.6517C17.7997 21.2536 17.0419 21.5125 16.1418 21.6335C15.2748 21.75 14.1725 21.75 12.8049 21.75H6.69513C5.32754 21.75 4.22522 21.75 3.35825 21.6335C2.45814 21.5125 1.70027 21.2536 1.09835 20.6517C0.496434 20.0497 0.23754 19.2919 0.116524 18.3918C-3.6709e-05 17.5248 -2.00767e-05 16.4225 5.46497e-07 15.0549V8.94513C-2.00767e-05 7.57754 -3.6709e-05 6.47522 0.116524 5.60825C0.23754 4.70814 0.496434 3.95027 1.09835 3.34835C1.62328 2.82342 2.26835 2.55818 3.02635 2.41895C3.58973 2.31546 4.24952 2.27599 5.0126 2.26045ZM5.01496 3.76087C4.29678 3.7762 3.74336 3.81234 3.29735 3.89426C2.73054 3.99838 2.40246 4.16556 2.15901 4.40901C1.88225 4.68577 1.7018 5.07435 1.60315 5.80812C1.50159 6.56347 1.5 7.56458 1.5 9V15C1.5 16.4354 1.50159 17.4365 1.60315 18.1919C1.7018 18.9257 1.88225 19.3142 2.15901 19.591C2.43577 19.8678 2.82435 20.0482 3.55812 20.1469C4.31347 20.2484 5.31458 20.25 6.75 20.25H12.75C14.1854 20.25 15.1865 20.2484 15.9419 20.1469C16.6757 20.0482 17.0642 19.8678 17.341 19.591C17.6178 19.3142 17.7982 18.9257 17.8969 18.1919C17.9984 17.4365 18 16.4354 18 15V9C18 7.56458 17.9984 6.56347 17.8969 5.80812C17.7982 5.07434 17.6178 4.68577 17.341 4.40901C17.0975 4.16556 16.7695 3.99838 16.2027 3.89426C15.7566 3.81234 15.2032 3.7762 14.485 3.76087C14.3558 4.88062 13.4044 5.75 12.25 5.75H7.25C6.09559 5.75 5.14424 4.88062 5.01496 3.76087ZM7.25 1.75C6.83579 1.75 6.5 2.08579 6.5 2.5V3.5C6.5 3.91421 6.83579 4.25 7.25 4.25H12.25C12.6642 4.25 13 3.91421 13 3.5V2.5C13 2.08579 12.6642 1.75 12.25 1.75H7.25ZM4 9.5C4 9.08579 4.33579 8.75 4.75 8.75H5.25C5.66421 8.75 6 9.08579 6 9.5C6 9.91421 5.66421 10.25 5.25 10.25H4.75C4.33579 10.25 4 9.91421 4 9.5ZM7.5 9.5C7.5 9.08579 7.83579 8.75 8.25 8.75H14.75C15.1642 8.75 15.5 9.08579 15.5 9.5C15.5 9.91421 15.1642 10.25 14.75 10.25H8.25C7.83579 10.25 7.5 9.91421 7.5 9.5ZM4 13C4 12.5858 4.33579 12.25 4.75 12.25H5.25C5.66421 12.25 6 12.5858 6 13C6 13.4142 5.66421 13.75 5.25 13.75H4.75C4.33579 13.75 4 13.4142 4 13ZM7.5 13C7.5 12.5858 7.83579 12.25 8.25 12.25H14.75C15.1642 12.25 15.5 12.5858 15.5 13C15.5 13.4142 15.1642 13.75 14.75 13.75H8.25C7.83579 13.75 7.5 13.4142 7.5 13ZM4 16.5C4 16.0858 4.33579 15.75 4.75 15.75H5.25C5.66421 15.75 6 16.0858 6 16.5C6 16.9142 5.66421 17.25 5.25 17.25H4.75C4.33579 17.25 4 16.9142 4 16.5ZM7.5 16.5C7.5 16.0858 7.83579 15.75 8.25 15.75H14.75C15.1642 15.75 15.5 16.0858 15.5 16.5C15.5 16.9142 15.1642 17.25 14.75 17.25H8.25C7.83579 17.25 7.5 16.9142 7.5 16.5Z" fill="#1E1B18"/>
</svg>
