<svg width="615" height="124" viewBox="0 0 615 124" fill="none" xmlns="http://www.w3.org/2000/svg">
<g clip-path="url(#clip0_103_394)">
<path d="M324.832 123.768C344.589 123.768 360.605 110.735 360.605 94.6564C360.605 78.5783 344.589 65.5444 324.832 65.5444C305.075 65.5444 289.059 78.5783 289.059 94.6564C289.059 110.735 305.075 123.768 324.832 123.768Z" fill="#822319"/>
<path d="M24.8044 100.506L22.519 97.496L20.8357 93.9413L18.9745 90.4683L17.5239 90.5568L17.3939 95.4667L17.2228 100.383L13.1515 100.179L9.0596 100.438L4.96772 100.506L0.766359 100.302L0.554238 95.9979L0.992165 91.7894V87.5877L0.827942 83.3929L0.335274 79.198L0.643192 74.9964L0.793729 70.7947L0.328432 66.5931L0.0136719 62.3029L4.36557 62.1054L8.40271 62.3233L12.4262 62.0509L16.4633 62.2348L20.4936 62.1394L24.8523 62.0237L29.0674 63.1064L33.084 64.7408L36.259 67.6758L38.0038 71.5642L39.0987 75.7727L38.3528 80.0357L35.8895 83.495L32.9745 86.2053L34.8699 89.6239L37.5522 92.6066L39.6529 95.9979L41.9315 99.2666L37.6343 99.7433L33.3372 100.274L29.0126 100.567L24.825 100.513L24.8044 100.506ZM19.9872 73.8523L17.1065 74.3495L16.8944 77.6658L16.8807 81.0707L19.3988 80.8869L22.5738 80.3421L24.0449 77.5977L19.9872 73.8591V73.8523Z" fill="#822319"/>
<path d="M66.2157 100.772L62.0964 101.01L58.1688 99.757L54.5217 97.966L50.9977 95.8413L48.4728 92.5794L46.81 88.8408L45.9479 84.8707L45.332 80.8257L45.6126 76.7534L46.9469 72.8854L48.9107 69.2967L52.0378 66.6681L55.3565 64.4345L59.0036 62.7524L62.8628 61.4109L66.9547 61.479L70.9165 61.9352L74.9058 62.3711L78.765 63.6377L82.0084 66.0824L84.4786 69.2286L86.5793 72.5926L87.4688 76.4606L87.8999 80.3899L87.9546 84.6664L86.7161 88.7659L84.9507 92.6543L82.1247 95.8618L78.5461 98.1499L74.7826 100.254L70.5265 101.01L66.2225 100.778L66.2157 100.772ZM66.6125 75.3233L62.6096 77.3527L60.7621 81.316L62.247 85.5994L66.5167 86.8183L70.5949 85.3746L72.244 81.2751L70.8071 77.0871L66.6125 75.337V75.3233Z" fill="#822319"/>
<path d="M118.815 100.465L117.494 97.714L116.796 94.4862L112.711 94.384L108.797 94.813L107.983 97.6595L107.032 100.629L102.879 100.247L98.684 100.322L94.4964 100.206L90.2061 99.7978L91.4583 95.889L93.2989 92.3274L94.7222 88.6161L96.0086 84.8503L96.9802 80.9687L98.6977 77.3595L100.265 73.7026L101.264 69.8346L102.386 66.0075L104.021 62.2961L108.585 62.5685L113.088 62.3302L117.604 62.5141L122.01 62.3574L123.762 65.9122L125.049 69.7733L126.657 73.5119L128.059 77.3322L129.359 81.1934L131.337 84.789L132.705 88.6161L133.773 92.5658L135.744 96.1682L136.845 99.9408L132.425 100.506L127.834 100.431L123.249 100.574L118.808 100.479L118.815 100.465ZM112.616 77.4276L111.603 82.0582L110.084 86.3144L115.182 86.4438L113.587 82.0855L112.616 77.4276Z" fill="#822319"/>
<path d="M166.255 100.506L163.969 97.496L162.286 93.9413L160.425 90.4683L158.974 90.5568L158.844 95.4667L158.673 100.383L154.602 100.179L150.51 100.438L146.418 100.506L142.217 100.302L142.004 95.9979L142.442 91.7894V87.5877L142.278 83.3929L141.785 79.198L142.093 74.9964L142.244 70.7947L141.779 66.5931L141.464 62.3029L145.816 62.1054L149.853 62.3233L153.876 62.0509L157.913 62.2348L161.944 62.1394L166.303 62.0237L170.518 63.1064L174.534 64.7408L177.709 67.6758L179.454 71.5642L180.549 75.7727L179.803 80.0357L177.34 83.495L174.425 86.2053L176.32 89.6239L179.002 92.6066L181.103 95.9979L183.382 99.2666L179.085 99.7433L174.787 100.274L170.463 100.567L166.275 100.513L166.255 100.506ZM161.444 73.8523L158.564 74.3495L158.351 77.6658L158.338 81.0707L160.856 80.8869L164.031 80.3421L165.502 77.5977L161.444 73.8591V73.8523Z" fill="#822319"/>
<path d="M205.627 100.125L201.768 100.506L197.696 100.132L193.618 99.9545L189.362 100.261V95.9231L189.472 91.7419L189.581 87.5607L189.232 83.3862L189.075 79.2118L189.143 75.0374L189 70.8562L189.458 66.6681L189.39 62.6844L193.413 62.6503L197.635 62.1941L201.864 62.5346L205.853 62.6231L206.133 66.6069L206.373 70.8221L206.12 75.0374L205.757 79.2527L205.921 83.468L205.654 87.6832L205.709 91.9053L206.051 96.1342L205.634 100.138L205.627 100.125Z" fill="#822319"/>
<path d="M257.015 99.7911L253.361 100.336L249.461 100.132H245.561L241.558 100.649L239.033 96.8425L236.617 93.0835L234.202 89.3176L231.588 85.8582L231.971 90.4549L232.047 95.2013L232.279 100.111L228.05 99.832L224.034 99.8865L220.017 100.091L215.83 100.561L216.049 96.1887L216.179 91.9871L215.7 87.7922L215.357 83.5974L215.508 79.3957L215.768 75.1941L215.501 70.9924L215.658 66.7839L215.453 62.7117L219.217 62.3575L223.137 62.521L227.058 62.3439L230.979 62.3848L233.381 66.2187L236.385 69.6509L238.855 73.4507L241.264 77.5434L240.99 73.6618L241.407 70.0322L240.921 66.4026L241.154 62.7457L245.287 62.6844L249.399 62.5005L253.512 62.2622L257.747 62.3167L257.802 66.6001L257.617 70.7677L257.371 74.9353L257.33 79.1097L257.727 83.2909L257.227 87.4585L257.268 91.633L257.583 95.821L257.015 99.7843V99.7911Z" fill="#822319"/>
<path d="M421.505 100.077L419.219 97.0671L417.536 93.5124L415.675 90.0393L414.224 90.1279L414.094 95.0378L413.923 99.9544L409.852 99.7501L405.76 100.009L401.668 100.077L397.467 99.8727L397.254 95.5689L397.692 91.3605V87.1588L397.528 82.9639L397.035 78.7691L397.343 74.5674L397.494 70.3658L397.029 66.1641L396.714 61.8739L401.066 61.6764L405.103 61.8944L409.126 61.622L413.163 61.8058L417.194 61.7105L421.553 61.5947L425.768 62.6775L429.784 64.3118L432.959 67.2469L434.704 71.1353L435.799 75.3438L435.053 79.6067L432.59 83.0661L429.675 85.7764L431.57 89.1949L434.252 92.1776L436.353 95.5689L438.632 98.8376L434.335 99.3143L430.037 99.8455L425.713 100.138L421.525 100.084L421.505 100.077ZM416.687 73.4166L413.807 73.9137L413.595 77.2301L413.581 80.635L416.099 80.4511L419.274 79.9063L420.745 77.162L416.687 73.4234V73.4166Z" fill="#822319"/>
<path d="M462.916 100.343L458.797 100.581L454.869 99.328L451.222 97.537L447.698 95.4124L445.173 92.1505L443.51 88.4119L442.648 84.4418L442.032 80.3967L442.313 76.3245L443.647 72.4565L445.611 68.8677L448.738 66.2391L452.057 64.0055L455.704 62.3235L459.563 60.9819L463.655 61.05L467.617 61.5063L471.606 61.9421L475.465 63.2087L478.709 65.6535L481.179 68.7996L483.279 72.1637L484.169 76.0316L484.6 79.9609L484.655 84.2375L483.416 88.337L481.651 92.2254L478.825 95.4328L475.246 97.7209L471.483 99.8251L467.227 100.581L462.923 100.349L462.916 100.343ZM463.306 74.8876L459.303 76.9169L457.455 80.8802L458.94 85.1636L463.21 86.3826L467.288 84.9389L468.937 80.8394L467.5 76.6513L463.306 74.9012V74.8876Z" fill="#822319"/>
<path d="M515.515 100.029L514.195 97.2782L513.497 94.0504L509.412 93.9482L505.498 94.3772L504.683 97.2238L503.732 100.193L499.579 99.8115L495.384 99.8864L491.197 99.7706L486.906 99.362L488.158 95.4532L489.999 91.8917L491.422 88.1803L492.709 84.4145L493.68 80.5329L495.398 76.9237L496.965 73.2668L497.964 69.3988L499.086 65.5717L500.721 61.8604L505.285 62.1327L509.788 61.8944L514.304 62.0783L518.711 61.9216L520.462 65.4764L521.749 69.3375L523.357 73.0761L524.76 76.8964L526.06 80.7576L528.037 84.3532L529.406 88.1803L530.473 92.13L532.444 95.7324L533.545 99.505L529.125 100.07L524.534 99.9953L519.949 100.138L515.508 100.043L515.515 100.029ZM509.316 76.9986L508.303 81.6293L506.784 85.8854L511.882 86.0148L510.287 81.6565L509.316 76.9986Z" fill="#822319"/>
<path d="M569.285 76.059L566.5 74.2476L563.338 72.4566L559.739 71.7007L557.023 74.6017L560.061 76.8217L564.248 77.8908L568.313 79.3141L572.097 81.3911L574.519 85.0343L575.067 89.3654L574.458 93.4785L571.782 96.5974L568.409 98.7629L564.584 100.118L560.581 101.16L556.441 100.969L552.13 100.533L547.792 100.173L543.549 99.0217L539.827 96.6859L536.844 93.819L539.622 90.2438L542.708 86.9411L545.438 89.2155L549.058 90.4345L552.746 91.2585L555.764 88.4256L552.78 85.9741L548.661 84.8981L544.412 84.2308L540.765 81.9154L538.814 78.1904L537.658 74.1114L538.753 70.1412L540.457 66.389L543.871 64.0192L547.696 62.5074L551.726 61.6358L555.853 61.2612L560.328 61.663L564.721 62.5755L568.826 64.3665L572.473 66.9134L575.641 69.8416L572.815 73.335L569.291 76.0658L569.285 76.059Z" fill="#822319"/>
<path d="M614.432 73.2055L610.675 73.6278L606.645 73.3213L606.611 77.7681L607.165 82.1468V86.5324L607.124 90.9247L607.083 95.317L607.459 99.8047L603.114 100.084H598.865L594.616 100.309L590.503 99.9818L590.551 96.3317L590.373 92.5182L589.86 88.7115L590.141 84.8912L590.264 81.0709L589.778 77.2574L589.532 73.6822L585.7 73.546L581.793 73.2736L581.608 69.5827L581.779 65.7216L581.574 62.0102L585.611 61.7038L589.778 61.9285L593.945 61.8127L598.112 61.9149L602.279 62.126L606.453 61.6152L610.627 61.7514L614.624 62.1396L615.007 65.776L614.514 69.5895L614.439 73.2055H614.432Z" fill="#822319"/>
<path d="M368.981 90.6319L368.591 94.7995L366.339 98.3134L364.259 101.814L362.87 105.825L359.894 108.746L356.582 111.238L353.756 114.214L350.8 117.19L346.749 118.443L343.006 120.071L339.174 121.467L335.014 122.754L337.765 119.546L339.687 115.869L341.727 112.308L343.841 108.705L345.298 104.742L345.668 100.533L345.073 96.3726L344.47 92.2594L343.417 88.2416L341.74 84.4281L340.604 80.1175L340.522 84.4622L339.441 88.4051L338.524 92.3752L336.519 88.228L334.432 84.1013L331.688 80.3695L329.211 76.3857L328.623 71.6257L327.309 75.732L325.913 79.6953L325.735 83.9038L325.469 88.0373L325.427 92.5727L325.722 97.1693L328.123 101.201L329.095 105.695L329.554 110.292L328.336 114.8L328.472 119.451L326.871 124L321.972 123.966L324.449 119.281L324.463 114.548L325.174 109.958L325.085 105.961L324.121 102.086L322.834 98.3134L321.705 94.493L321.555 90.4889L321.11 86.5188L321.89 82.3239L322.512 78.1359L322.485 73.8525L323.676 69.7394L324.121 66.137L320.884 67.9279L319.235 71.7483L316.505 74.908L315.027 78.7556L314.602 82.8619L313.617 86.8456L313.487 90.9383L314.137 94.9902L314.37 98.9058L310.873 96.6245L309.443 92.5727L307.637 88.7932L306.665 92.7906L305.365 96.7607L305.522 100.922L305.885 105.069L307.082 109.059L308.889 112.791L310.579 116.605L313.542 119.567L315.793 122.679L311.934 122.195L307.869 121.024L303.99 119.335L300.644 116.72L297.003 114.582L294.266 111.375L291.31 108.426L288.936 104.987L287.068 101.255L285.562 97.3804L284.16 93.4239L283.523 89.1201L283.147 84.7822L283.715 80.4444L283.448 76.0997L284.413 71.8504L284.276 67.424L286.041 63.379L286.842 59.3884L288.368 55.6226L289.586 51.7546L290.393 47.7777L291.57 43.828L291.002 39.7489L290.489 35.7584L293.144 37.2565L295.286 39.8919L298.31 43.2015L299.152 47.6483L300.808 51.7206L300.698 56.181L301.868 56.6986L304.003 52.9259L306.001 49.3031L307.609 45.4828L307.965 41.499L308.567 37.5902L308.601 33.6269L308.978 29.6704L310.367 25.8092L310.182 21.7846L311.017 17.869L312.639 14.1917L314.678 10.5076L317.784 7.65424L321.035 5.07332L324.079 2.23362L327.706 0L328 0.517546L327.295 4.7873L327.248 9.00258L327.597 13.1634L327.966 17.4944L330.402 21.09L331.935 25.1487L334.85 28.3425L337.258 31.8836L340.105 35.0842L342.438 38.6934L345.408 41.8191L348.042 45.5645L349.835 49.7866L351.539 54.0019L353.01 58.3329L353.708 62.8478L353.749 67.2402L356.13 64.2438L357.684 60.5325L358.929 56.6713L358.744 52.6059L358.936 48.6153L359.189 44.6043L358.628 41.356L358.902 40.4367L361.016 43.8893L363.431 47.1989L365.012 50.9783L366.962 54.5875L368.351 58.4351L369.514 62.3643L370.377 66.3753L371.163 70.4067L371.567 74.5062L370.561 78.5989L371.259 82.7325L369.85 86.6686L368.981 90.6319Z" fill="#EF4125"/>
</g>
<defs>
<clipPath id="clip0_103_394">
<rect width="615" height="124" fill="white"/>
</clipPath>
</defs>
</svg>
