<svg width="166" height="53" viewBox="0 0 166 53" fill="none" xmlns="http://www.w3.org/2000/svg">
<path d="M5.45774 12.3282L2.02734 8.85456L9.65782 4.77718L152.132 2.48169L161.759 10.0957L164.539 35.4157L162.992 47.7957L152.393 51.5478L11.8235 52.0326L6.97271 42.3316L4.51161 17.829L5.45774 12.3282Z" fill="#EF4125"/>
<path d="M2.22831 15.0121C-0.230011 6.74419 8.1317 5.60999 13.6392 8.72058M2.22831 15.0121V15.0121ZM9.09609 3.481C57.5487 3.78926 101.676 -0.282291 151.734 1.41585M154.228 5.01208C162.25 5.29749 164.193 6.0209 162.43 12.4792M163.287 13.7891C166.598 24.5056 162.738 29.3274 161.501 37.9945M164.228 39.0121C161.653 47.2953 159.358 45.853 156.994 49.1897M150.714 46.4862C112.3 48.6372 74.19 50.5396 12.4422 49.2168M12.2283 49.0121C5.35517 50.2651 -1.34457 46.7256 1.79695 37.2755M5.21802 42.5502C4.054 34.5809 2.54005 28.0568 1.10461 18.0668" stroke="#1E1B18" stroke-width="2" stroke-linecap="round"/>
<path d="M33.3276 34.9002L30.1103 35.6712L26.8211 31.0113C26.1558 31.033 25.2979 31.061 24.6665 31.0465L24.9223 35.6651L21.8579 35.7476L21.0396 21.9459C22.6131 21.8245 24.6948 21.704 26.7957 21.6355C30.4198 21.5173 32.2661 23.3148 32.3604 26.2036C32.4266 28.2345 31.4523 29.5282 29.8463 30.2641L33.3276 34.9002ZM29.1728 26.2726C29.13 24.9595 28.2401 24.007 26.6994 24.0573C25.9641 24.0813 25.0204 24.1646 24.1987 24.2265L24.4956 28.4932C25.3546 28.5003 26.1786 28.5084 26.984 28.4822C28.4021 28.4359 29.2134 27.5156 29.1728 26.2726ZM45.5693 34.6762L36.6862 35.2989L35.7195 21.7826L44.937 21.2015L45.1113 23.8598L39.0243 24.2336L39.2265 27.2065L44.7555 26.921L44.9626 29.5081L39.4499 29.7581L39.6503 32.6784L45.4193 32.2274L45.5693 34.6762ZM61.466 34.2803L57.9939 34.7616L56.7898 31.6987L51.2106 32.056L50.2718 34.9784L47.0542 34.6628L52.0017 20.8483L55.4683 20.7352L61.466 34.2803ZM55.7949 29.1373L53.7463 23.8235L52.0009 29.4188L55.7949 29.1373ZM75.6437 27.333C75.7899 31.815 73.0561 33.9723 68.6441 34.1162C67.0159 34.1694 64.9121 34.1504 63.7374 34.1361L63.0881 20.6795C64.0329 20.6311 66.6054 20.5122 68.0061 20.4665C72.5406 20.3186 75.4838 22.4309 75.6437 27.333ZM72.4877 27.2958C72.4049 24.7572 70.9303 23.0702 68.4617 23.1507C67.6213 23.1781 66.869 23.2202 66.223 23.2938L66.663 31.4117C67.4701 31.438 68.1365 31.4513 68.9069 31.4261C71.2004 31.3513 72.57 29.8169 72.4877 27.2958ZM99.8969 33.237L96.8353 33.407L96.33 24.3623L91.5343 33.1593L90.4674 33.2291L85.3391 24.8435L85.8037 33.7142L82.8624 33.8102L82.1142 20.0063L85.8066 19.8332L90.9332 28.1663L95.6652 19.5642L99.1848 19.4669L99.8969 33.237ZM116.825 25.5691C116.975 30.1561 114.373 33.1503 109.891 33.2965C105.655 33.4348 102.774 30.5492 102.629 26.1198C102.493 21.9529 105.28 18.7423 109.535 18.6035C113.877 18.4619 116.684 21.2447 116.825 25.5691ZM113.68 25.8645C113.594 23.2208 112.028 21.4316 109.595 21.511C107.109 21.5921 105.7 23.5309 105.785 26.1395C105.87 28.7482 107.383 30.5391 109.869 30.458C112.39 30.3758 113.762 28.3681 113.68 25.8645ZM131.843 31.6866L128.626 32.4576L125.336 27.7977C124.671 27.8194 123.813 27.8474 123.182 27.8329L123.438 32.4516L120.373 32.534L119.555 18.7324C121.128 18.6109 123.21 18.4905 125.311 18.4219C128.935 18.3037 130.781 20.1013 130.876 22.9901C130.942 25.021 129.968 26.3146 128.362 27.0506L131.843 31.6866ZM127.688 23.059C127.645 21.7459 126.755 20.7934 125.215 20.8437C124.479 20.8677 123.536 20.9511 122.714 21.0129L123.011 25.2797C123.87 25.2867 124.694 25.2949 125.499 25.2686C126.917 25.2223 127.729 24.302 127.688 23.059ZM144.085 31.4626L135.202 32.0854L134.235 18.569L143.452 17.9879L143.627 20.6462L137.54 21.02L137.742 23.9929L143.271 23.7074L143.478 26.2946L137.965 26.5445L138.166 29.4649L143.935 29.0138L144.085 31.4626Z" fill="#1E1B18"/>
</svg>
