<svg width="166" height="53" viewBox="0 0 166 53" fill="none" xmlns="http://www.w3.org/2000/svg">
<path d="M160.139 39.7045L163.57 43.1781L155.939 47.2555L13.4656 49.551L3.83771 41.937L1.05854 16.6169L2.60486 4.23699L13.2042 0.484858L153.774 4.492e-05L158.624 9.70106L161.086 34.2036L160.139 39.7045Z" fill="#EF4125"/>
<path d="M163.369 37.0205C165.827 45.2884 157.465 46.4226 151.958 43.312M163.369 37.0205V37.0205ZM156.501 48.5516C108.048 48.2433 63.921 52.3149 13.863 50.6167M11.3689 47.0205C3.34687 46.7351 1.40381 46.0117 3.16683 39.5534M2.30972 38.2435C-1.00059 27.527 2.85904 22.7052 4.09658 14.0381M1.36887 13.0205C3.94443 4.7373 6.23944 6.17957 8.60325 2.84292M14.8833 5.54633C53.2973 3.39542 91.4072 1.493 153.155 2.81578M153.369 3.02051C160.242 1.76748 166.942 5.307 163.8 14.7571M160.379 9.4824C161.543 17.4517 163.057 23.9758 164.493 33.9658" stroke="#1E1B18" stroke-width="2" stroke-linecap="round"/>
<path d="M48.9038 20.2798L44.2692 34.0139L40.9619 34.1744L35.2828 20.7241L38.5074 20.1807L42.5458 30.0741L45.8443 19.9765L48.9038 20.2798ZM54.8186 19.7188L55.128 33.5019L52.0794 33.5313L51.6847 19.821L54.8186 19.7188ZM68.8186 32.81L59.9355 33.4328L58.9688 19.9164L68.1863 19.3353L68.3606 21.9936L62.2736 22.3674L62.4758 25.3403L68.0048 25.0548L68.2119 27.642L62.6992 27.8919L62.8996 30.8123L68.6686 30.3612L68.8186 32.81ZM92.0863 18.7485L87.6611 32.4582L84.0241 32.7171L81.0844 24.8034L78.2425 32.783L74.6885 32.8989L70.1479 19.429L73.7577 18.8731L76.7161 28.4337L80.1018 18.859L82.327 18.839L85.8393 28.1886L88.6743 18.3865L92.0863 18.7485ZM111.011 31.5563L107.539 32.0377L106.335 28.9748L100.756 29.332L99.817 32.2545L96.5994 31.9388L101.547 18.1244L105.013 18.0113L111.011 31.5563ZM105.34 26.4133L103.291 21.0995L101.546 26.6948L105.34 26.4133ZM120.517 28.6173L120.49 31.5276L113.059 31.5596L112.821 17.7917L116.007 17.6702L116.17 28.6014L120.517 28.6173ZM130.776 28.2827L130.748 31.193L123.318 31.225L123.079 17.4571L126.265 17.3356L126.429 28.2667L130.776 28.2827Z" fill="#1E1B18"/>
</svg>
