<?xml version="1.0" encoding="UTF-8"?>
<svg id="Layer_2" data-name="Layer 2" xmlns="http://www.w3.org/2000/svg" viewBox="0 0 1620.74 1244.26">
  <defs>
    <style>
      .cls-1 {
        font-size: 163.29px;
      }

      .cls-1, .cls-2 {
        font-family: IrishGrover-Regular, 'Irish Grover';
      }

      .cls-2 {
        font-size: 215.45px;
      }
    </style>
  </defs>
  <g id="Layer_1-2" data-name="Layer 1">
    <text class="cls-1" transform="translate(389.94 204.77) rotate(-15.74)"><tspan x="0" y="0">W</tspan></text>
    <text class="cls-1" transform="translate(506.33 172.6) rotate(-10.88)"><tspan x="0" y="0">e</tspan></text>
    <text class="cls-1" transform="translate(594.2 156.37) rotate(-8.14)"><tspan x="0" y="0">l</tspan></text>
    <text class="cls-1" transform="translate(628.76 150.84) rotate(-5.59)"><tspan x="0" y="0">c</tspan></text>
    <text class="cls-1" transform="translate(716.03 142.35) rotate(-2.02)"><tspan x="0" y="0">o</tspan></text>
    <text class="cls-1" transform="translate(801.58 138.23) rotate(2.45)"><tspan x="0" y="0">m</tspan></text>
    <text class="cls-1" transform="translate(939.15 144.96) rotate(7.07)"><tspan x="0" y="0">e</tspan></text>
    <text class="cls-1" transform="translate(1027.2 156.33) rotate(10.1)"><tspan x="0" y="0"> </tspan></text>
    <text class="cls-1" transform="translate(1077.57 165.23) rotate(12.5)"><tspan x="0" y="0">t</tspan></text>
    <text class="cls-1" transform="translate(1133.83 177.23) rotate(16.03)"><tspan x="0" y="0">o</tspan></text>
    <text class="cls-2" transform="translate(251.73 445.79) rotate(-22.82)"><tspan x="0" y="0">W</tspan></text>
    <text class="cls-2" transform="translate(396.09 386.36) rotate(-15.71)"><tspan x="0" y="0">o</tspan></text>
    <text class="cls-2" transform="translate(505.1 355.44) rotate(-10.12)"><tspan x="0" y="0">n</tspan></text>
    <text class="cls-2" transform="translate(625.36 333.83) rotate(-4.88)"><tspan x="0" y="0">d</tspan></text>
    <text class="cls-2" transform="translate(748.57 323.81) rotate(-.53)"><tspan x="0" y="0">e</tspan></text>
    <text class="cls-2" transform="translate(866.01 323.39) rotate(4.29)"><tspan x="0" y="0">r</tspan></text>
    <text class="cls-2" transform="translate(964.66 331.39) rotate(7.25)"><tspan x="0" y="0">l</tspan></text>
    <text class="cls-2" transform="translate(1009 335.89) rotate(10.68)"><tspan x="0" y="0">a</tspan></text>
    <text class="cls-2" transform="translate(1122.42 356.88) rotate(16.42)"><tspan x="0" y="0">n</tspan></text>
    <text class="cls-2" transform="translate(1238.9 390.63) rotate(23.18)"><tspan x="0" y="0">d</tspan></text>
  </g>
</svg>