<?xml version="1.0" encoding="UTF-8"?>
<svg id="Layer_2" data-name="Layer 2" xmlns="http://www.w3.org/2000/svg" viewBox="0 0 1246.11 406.68">
  <g id="Layer_1-2" data-name="Layer 1">
    <g>
      <path d="M168.08,68.61c3.49-.54,6.62-1.09,9.39-1.65,2.77-.56,5.15-1.01,7.16-1.35,2.31-.43,4.35-.84,6.12-1.23,1.84-.52,4.18-1.23,7.02-2.14,2.43-.79,5.5-1.83,9.23-3.1,3.73-1.27,8.28-2.94,13.66-5.01-2.23,2.28-3.97,4.43-5.23,6.44-1.26,2.01-2.17,3.76-2.75,5.25-.72,1.75-1.14,3.41-1.24,4.99.24,2.03,1.41,5.79,3.51,11.27.87,2.3,2.02,5.09,3.44,8.39,1.43,3.3,3.18,7.17,5.26,11.61,2.08,4.44,4.56,9.51,7.44,15.22,2.88,5.71,6.17,12.18,9.86,19.42.4-6.41.63-12.08.67-17.01.05-4.93.07-9.16.07-12.69-.02-3.97-.07-7.49-.16-10.56-.12-3.17-.33-7.25-.64-12.25-.31-4.22-.69-9.69-1.15-16.41-.46-6.72-1.03-15.01-1.71-24.87l5.74-.79c2.56,7.12,4.9,13.37,7.02,18.73,2.12,5.37,3.93,9.94,5.44,13.71,1.68,4.39,3.18,8.16,4.52,11.32,1.24,2.85,2.82,6.11,4.74,9.76,1.64,3.07,3.69,6.83,6.16,11.27,2.47,4.44,5.46,9.37,8.97,14.78-.21-7.78-.37-14.75-.5-20.9-.13-6.15-.28-11.57-.45-16.28-.17-4.7-.31-8.75-.44-12.14-.13-3.39-.24-6.23-.33-8.52-.32-5.43-.62-9.05-.9-10.85-.65-1.91-1.64-3.68-2.98-5.29-1.18-1.43-2.81-2.91-4.89-4.42-2.08-1.51-4.87-2.77-8.35-3.78,6.3-1.55,11.43-2.86,15.38-3.92,3.95-1.06,7.11-1.92,9.46-2.58l6.14-1.73,5.53-1.56c2.05-.58,4.73-1.36,8.04-2.35,3.31-.99,7.55-2.32,12.71-4-3.84,3.62-6.87,6.8-9.08,9.52-2.21,2.72-3.9,4.97-5.06,6.73-1.38,2.16-2.32,3.91-2.82,5.27-.24,2.28-.27,7.26-.1,14.94.04,3.3.2,7.37.46,12.21.26,4.84.59,10.63,1,17.36.41,6.73.93,14.57,1.57,23.5.64,8.93,1.41,19.13,2.32,30.58l-27.33,4.72-24.81-44.53c.71,9.19,1.31,16.61,1.8,22.27.49,5.66.9,10.05,1.22,13.16.4,3.76.77,6.47,1.13,8.13.3,1.46.59,2.87.86,4.23.21,1.16.43,2.42.65,3.79.22,1.37.39,2.65.5,3.83l-27.17,7.66c-5.95-10.91-11.23-20.55-15.85-28.92-4.62-8.36-8.7-15.69-12.24-21.98-3.54-6.29-6.56-11.62-9.07-16-2.5-4.37-4.66-8.02-6.48-10.93-4.12-6.79-6.89-10.92-8.3-12.41-.95-.62-2.14-1.33-3.58-2.14-1.18-.66-2.66-1.49-4.43-2.48-1.77-.99-3.82-2.1-6.15-3.32Z"/>
      <path d="M364.15,107.73c2.92-.56,5.58-1.4,7.96-2.5,1.99-.92,3.83-2.17,5.53-3.74,1.7-1.57,2.63-3.62,2.8-6.14,2.17.02,4.01.02,5.52,0,1.51-.02,2.81-.02,3.89-.02,1.21.09,2.24.11,3.1.05.88.05,1.91.07,3.1.05,1.08.01,2.41,0,3.97-.03,1.56-.03,3.43-.03,5.6-.02-1.61.09-3.17.56-4.69,1.39-1.52.83-2.95,1.7-4.29,2.61-1.53,1.05-2.93,2.24-4.19,3.56-.82.81-1.71,1.95-2.67,3.44-.96,1.48-2.42,3.01-4.4,4.58-1.97,1.57-4.68,3.09-8.13,4.57-3.45,1.47-8.02,2.65-13.69,3.52-6.83,1.1-12.75.96-17.78-.4-5.03-1.36-9.26-3.42-12.71-6.16s-6.17-5.93-8.17-9.55c-1.99-3.62-3.37-7.09-4.11-10.41-.75-3.32-.43-7.01.96-11.06,1.39-4.05,3.69-7.96,6.92-11.72,3.23-3.76,7.37-7.12,12.43-10.1,5.06-2.97,10.82-5.08,17.3-6.33,3.76-.72,7.31-.94,10.67-.67,3.35.28,6.5.89,9.45,1.84,2.94.95,5.58,2.15,7.92,3.59,2.33,1.45,4.36,2.98,6.08,4.6,1.74,1.72,3.29,3.59,4.65,5.6,1.2,1.72,2.29,3.73,3.27,6.03.98,2.3,1.61,4.72,1.88,7.27-7.89,1.74-14.26,3.12-19.09,4.16-4.83,1.04-8.61,1.82-11.32,2.34l-7.05,1.35-5.32,1.02c-1.88.36-4.32.89-7.33,1.57-3.01.69-6.68,1.56-11.03,2.61,1.32,4.08,3.27,7.03,5.84,8.86,2.57,1.84,5.17,3.09,7.79,3.78,2.95.73,6.07.89,9.35.48ZM344.64,82.25c3.38-.43,6.2-.81,8.47-1.14,2.26-.33,4.14-.58,5.62-.75,1.59-.2,2.85-.39,3.79-.57l3.92-.75c2.61-.5,7.43-1.59,14.47-3.27-1.2-4.53-2.83-7.84-4.91-9.94-2.08-2.09-4.12-3.54-6.11-4.35-2.33-.85-4.77-1.14-7.31-.87-6.77,1.41-11.53,3.79-14.3,7.13-2.77,3.35-3.98,8.18-3.63,14.5Z"/>
      <path d="M420.43,128.54c.82-1.73,1.46-3.32,1.89-4.78.44-1.46.8-2.69,1.08-3.7.25-1.22.42-2.32.5-3.29.01-.65-.2-2.49-.63-5.55-.44-3.05-1.06-6.88-1.88-11.49-.82-4.61-1.72-9.79-2.71-15.56-.99-5.76-2.04-11.63-3.16-17.59-1.12-5.96-2.22-11.76-3.29-17.41-1.08-5.65-2.05-10.74-2.91-15.29-.87-4.55-1.61-8.28-2.24-11.2-.63-2.92-1.03-4.58-1.2-4.98-.3-.6-.76-1.18-1.38-1.74-1.23-1.11-3.19-2.07-5.89-2.86,5.17-2.13,9.12-3.83,11.84-5.08,1.62-.66,3.04-1.29,4.24-1.89,1.1-.58,2.19-1.17,3.29-1.76.89-.55,1.87-1.21,2.94-1.95,1.07-.74,2.03-1.55,2.88-2.42-.09,3.13-.09,6.13,0,9.02.09,2.89.2,5.56.34,8.01.18,2.77.45,5.41.81,7.94.21,5.23.72,10.88,1.54,16.94.81,6.06,1.71,12.19,2.71,18.38.99,6.2,2.07,12.22,3.23,18.06,1.16,5.85,2.26,11.14,3.32,15.88,1.05,4.74,2,8.73,2.84,12,.84,3.26,1.43,5.35,1.78,6.27.65,1.52,1.29,2.99,1.92,4.4.6,1.2,1.27,2.48,2,3.82.73,1.35,1.52,2.39,2.38,3.12l-15.31,2.19c-1.37.2-2.68.44-3.92.72-1.14.27-2.34.55-3.58.83-1.25.28-2.38.61-3.41.97Z"/>
      <path d="M533.95,54.2c-1.29-.09-2.87-.09-4.73-.02-1.86.08-3.64.2-5.33.36-1.9.19-3.91.44-6.01.75-2.21.32-4.42.65-6.63.97-1.89.29-4.02.63-6.39,1.03s-4.65.8-6.85,1.23c.8-.5,1.51-1.16,2.13-1.97.61-.81,1.15-1.61,1.61-2.4.45-.9.83-1.84,1.16-2.84.37-1.64.13-3.56-.72-5.78-.86-2.21-2.2-4.19-4.03-5.94-1.83-1.74-4.04-3.05-6.63-3.92-2.6-.87-5.34-.84-8.24.09-3.1,1.05-5.83,2.44-8.17,4.16-2.34,1.73-4.21,3.96-5.59,6.72-1.39,2.75-2.24,6.04-2.56,9.86-.32,3.82-.07,8.31.76,13.46,1.05,6.41,2.61,11.44,4.68,15.08,2.06,3.64,4.41,6.3,7.03,7.96,2.62,1.67,5.4,2.54,8.35,2.63,2.95.09,5.83-.17,8.66-.77,1.97-.62,3.73-1.7,5.29-3.24,1.26-1.3,2.36-3.12,3.31-5.45.95-2.34,1.17-5.46.69-9.36l19.28-2.69c-1.61,6.46-3.83,11.67-6.64,15.63-2.82,3.96-5.61,7.09-8.37,9.39-3.26,2.67-6.6,4.6-10.01,5.79-4.27,1.17-8.1,1.83-11.5,2.01-3.4.17-6.52-.03-9.35-.61-2.84-.58-5.48-1.39-7.93-2.43-2.45-1.04-4.81-2.2-7.07-3.47-1.47-.82-3.16-2.25-5.07-4.31-1.91-2.06-3.76-4.57-5.54-7.55-1.79-2.97-3.34-6.32-4.67-10.04-1.33-3.72-2.08-7.62-2.27-11.71-.19-4.09.36-8.29,1.65-12.58,1.29-4.29,3.6-8.52,6.93-12.69,5.05-6.26,10.69-10.58,16.92-12.95,6.23-2.37,12.24-3.44,18.03-3.21,5.79.23,11.03,1.4,15.72,3.51s8.08,4.55,10.17,7.34c2.09,2.79,3.66,4.9,4.71,6.35,1.05,1.45,1.85,2.54,2.4,3.29.55.75,1.03,1.29,1.44,1.62.41.34,1.01.78,1.81,1.34.58.48,1.27,1,2.08,1.56.69.47,1.49,1.03,2.41,1.69.92.66,1.95,1.36,3.09,2.1Z"/>
      <path d="M578.21,37.98c2.76-.1,5.65.31,8.66,1.21,3.01.91,5.92,2.08,8.74,3.52,2.82,1.44,5.4,3,7.74,4.67,2.34,1.67,4.29,3.28,5.83,4.82,2.76,2.77,4.72,6.56,5.91,11.36,1.18,4.8,1.54,9.73,1.08,14.8-.46,5.07-1.78,9.88-3.96,14.42-2.18,4.54-5.3,7.95-9.37,10.22-2.92,1.59-5.8,2.86-8.64,3.81-2.84.95-5.58,1.69-8.22,2.2-2.64.52-5.13.82-7.47.9-2.34.08-4.36.1-6.06.05-3.19-.1-6.56-1.1-10.08-3-3.52-1.9-6.85-4.28-9.99-7.15-3.13-2.87-5.82-6.04-8.07-9.53-2.25-3.48-3.65-6.81-4.18-9.98-.79-4.33-1.06-8.9-.8-13.69.25-4.8,1.67-9.26,4.24-13.39,2.57-4.13,6.59-7.62,12.08-10.48,5.48-2.85,13.01-4.45,22.57-4.78ZM575.13,100c1.18.17,2.76-.18,4.75-1.04,1.99-.87,3.94-2.24,5.84-4.12,1.9-1.87,3.57-4.25,5.01-7.12,1.44-2.87,2.25-6.33,2.43-10.38.18-3.94.08-7.55-.3-10.84-.38-3.28-.99-6.16-1.82-8.63-.83-2.47-1.75-4.49-2.77-6.05s-2.06-2.64-3.15-3.24c-1.84-.89-4.04-1.59-6.62-2.08-2.57-.49-4.75-.28-6.52.63-.84.46-1.87,1.4-3.09,2.82-1.23,1.43-2.44,3.2-3.64,5.31-1.2,2.12-2.26,4.52-3.18,7.21-.92,2.69-1.54,5.48-1.86,8.36-.33,2.88-.3,5.97.09,9.25.38,3.29,1.15,6.37,2.32,9.25,1.16,2.89,2.77,5.33,4.81,7.33,2.04,2,4.6,3.11,7.7,3.32Z"/>
      <path d="M626,31.39c2.45-.11,4.56-.23,6.32-.37,1.76-.14,3.23-.29,4.41-.45,1.39-.15,2.57-.31,3.53-.49.96-.06,2.03-.23,3.21-.5,1.07-.17,2.28-.41,3.62-.72,1.34-.31,2.82-.7,4.44-1.17l-1.82,20.19c2.49-3.62,5.32-6.34,8.49-8.18,3.16-1.83,6.15-3.17,8.95-4.01,3.34-1.03,6.66-1.58,9.97-1.65,3.39.25,6.5.92,9.33,2,2.41.96,4.82,2.39,7.24,4.3,2.42,1.91,4.24,4.65,5.47,8.21,3.77-3.56,7.48-6.3,11.12-8.22,3.65-1.92,6.87-3.35,9.68-4.29,3.34-1.03,6.45-1.58,9.33-1.68,3.83.06,7.33.85,10.51,2.36,3.18,1.52,5.95,3.37,8.3,5.54,2.35,2.18,4.22,4.44,5.62,6.78,1.39,2.35,2.15,4.38,2.29,6.08.22,2.35-.07,5.34-.86,8.98s-1.7,7.32-2.71,11.06c-1.01,3.73-1.93,7.15-2.75,10.26-.83,3.1-1.21,5.29-1.16,6.57.27,1.08.96,2.38,2.07,3.92,1.01,1.32,2.51,2.96,4.5,4.9,1.99,1.95,4.9,4.23,8.73,6.84-3.4-.25-6.39-.48-8.99-.7-2.6-.22-4.8-.47-6.59-.76-2.12-.3-3.97-.54-5.56-.72-1.28-.05-2.81-.22-4.61-.52-1.48-.17-3.41-.41-5.79-.73-2.38-.31-5.11-.64-8.18-.99,1.18-.27,2.16-.84,2.95-1.71.78-.87,1.45-1.72,2.02-2.55.58-1.04,1.05-2.19,1.42-3.45.26-1.05.54-2.74.85-5.07.31-2.33.61-4.97.9-7.94.29-2.97.52-6.1.72-9.39.19-3.29.3-6.42.32-9.4.02-2.98-.08-5.69-.29-8.15-.21-2.46-.56-4.33-1.04-5.63-.38-.97-1.1-1.77-2.13-2.41-1.04-.63-2.24-1.05-3.62-1.27-1.38-.22-2.76-.22-4.15-.02-1.39.21-2.63.61-3.72,1.2-.99.7-2.31,1.66-3.95,2.86-1.43,1.11-3.3,2.63-5.62,4.55-2.32,1.92-5.24,4.35-8.77,7.29-.6,6.68-1.07,12.06-1.41,16.14-.33,4.08-.6,7.18-.8,9.3-.22,2.54-.34,4.29-.38,5.25-.14.85-.12,1.65.06,2.4.14,1.6.72,3.12,1.72,4.54-1.26-.37-2.61-.64-4.04-.81-1.43-.17-2.73-.33-3.89-.49-1.38-.16-2.76-.28-4.14-.34-1.17-.05-2.45-.05-3.83,0-1.17.06-2.61.13-4.32.21-1.71.09-3.58.19-5.6.32.87-.49,1.59-1.1,2.15-1.82.56-.72,1.02-1.39,1.36-2.02.46-.72.8-1.4,1.04-2.03.13-.63.41-2.19.84-4.67.43-2.48.76-5.42,1.02-8.81.25-3.39.4-6.98.46-10.75.05-3.77-.17-7.24-.67-10.4-.5-3.16-1.38-5.78-2.62-7.85-1.24-2.07-2.93-3.05-5.06-2.93-2.56.11-5.19.63-7.89,1.58-2.27.76-4.71,1.93-7.33,3.52-2.62,1.59-5.11,3.77-7.46,6.54-.77,7.95-1.27,14.26-1.53,18.93-.25,4.67-.38,8.23-.38,10.68-.02,2.87,0,4.84.07,5.91.07.75.31,1.5.7,2.26.29.65.66,1.41,1.1,2.28.44.87.97,1.69,1.57,2.46l-25.28-2.36c.87-.39,1.63-.91,2.3-1.58.67-.66,1.23-1.36,1.69-2.08.46-.83.92-1.66,1.38-2.49.35-.73.72-2.47,1.1-5.22.38-2.75.76-6.01,1.14-9.77.37-3.76.73-7.73,1.07-11.92.34-4.19.61-8.11.82-11.78.21-3.66.37-6.79.48-9.4.11-2.6.12-4.17.04-4.71-.27-1.07-.81-2.21-1.61-3.42-.71-.88-1.68-1.85-2.91-2.92-1.23-1.06-2.9-1.9-5-2.53Z"/>
      <path d="M805.43,93.49c2.95.37,5.74.39,8.35.07,2.17-.27,4.31-.88,6.42-1.86,2.1-.97,3.62-2.63,4.55-4.98,2.06.68,3.81,1.25,5.25,1.7,1.44.45,2.68.84,3.71,1.18,1.12.46,2.1.8,2.93,1.01.82.32,1.79.65,2.93,1.01,1.03.34,2.29.74,3.79,1.19,1.5.45,3.27,1.02,5.33,1.71-1.56-.41-3.19-.45-4.89-.12-1.7.33-3.33.71-4.88,1.16-1.78.53-3.47,1.23-5.08,2.1-1.03.52-2.23,1.33-3.6,2.45-1.37,1.12-3.24,2.12-5.59,3-2.36.89-5.41,1.5-9.15,1.84-3.74.34-8.44.05-14.11-.87-6.83-1.06-12.43-3.01-16.79-5.86-4.36-2.84-7.76-6.1-10.2-9.78-2.44-3.68-4.05-7.54-4.83-11.61-.78-4.06-1.02-7.78-.7-11.17.31-3.39,1.75-6.8,4.32-10.23,2.57-3.43,5.96-6.44,10.2-9.02,4.23-2.58,9.21-4.51,14.94-5.78,5.73-1.27,11.86-1.5,18.4-.69,3.8.47,7.25,1.36,10.36,2.65,3.11,1.3,5.91,2.85,8.42,4.66,2.51,1.81,4.65,3.76,6.42,5.86,1.77,2.1,3.23,4.18,4.37,6.25,1.12,2.18,2.02,4.43,2.7,6.76.61,2,1.02,4.25,1.25,6.74.23,2.49.08,4.99-.45,7.5-8.04-.78-14.53-1.42-19.44-1.93-4.92-.5-8.75-.92-11.49-1.26l-7.12-.88-5.38-.67c-1.9-.24-4.39-.49-7.46-.76-3.07-.27-6.84-.58-11.29-.92,0,4.29.95,7.7,2.83,10.23,1.88,2.54,3.96,4.54,6.25,6,2.59,1.61,5.5,2.72,8.75,3.33ZM794.72,63.24c3.35.63,6.15,1.14,8.41,1.52,2.25.39,4.11.73,5.58,1.01,1.57.3,2.83.51,3.78.63l3.96.49c2.64.33,7.56.78,14.78,1.35.26-4.68-.28-8.33-1.61-10.97-1.34-2.63-2.83-4.63-4.48-6.02-1.96-1.53-4.18-2.55-6.69-3.08-6.87-.74-12.14.05-15.8,2.38-3.66,2.33-6.3,6.56-7.92,12.68Z"/>
      <path d="M919.38,35.86c3.04,1,5.61,1.84,7.69,2.52,2.08.68,3.79,1.22,5.11,1.62,1.53.45,2.77.78,3.7.98.91.31,2.16.59,3.74.83,1.37.2,3.17.46,5.38.78,2.21.33,5.03.65,8.44.97-.96.88-1.73,1.66-2.32,2.35-.59.69-1.11,1.31-1.56,1.86l-1.35,1.66c-.35.58-.69,1.15-1.04,1.73-.33.47-.64,1.06-.96,1.75-.32.69-.62,1.44-.91,2.25l23.98,5.31-4.97,12.13-21.68-6.11c-1.69,5.18-2.96,9.2-3.82,12.06-.85,2.86-1.53,4.94-2.04,6.25l-.93,2.73c-1.19,3.88-2.45,8.09-3.78,12.64-1.34,4.55-2.39,8.81-3.16,12.78-.77,3.97-1.14,7.34-1.1,10.13s.83,4.35,2.39,4.69c1.56.35,3.1.25,4.64-.28,1.53-.53,2.92-1.26,4.16-2.18,1.24-.92,2.25-1.92,3.03-3,.78-1.08,1.24-1.93,1.38-2.55.14-.62.14-1.38.02-2.28-.18-1.67-.67-3.85-1.49-6.54,2.85,1.39,5.33,2.71,7.46,3.94,1.05.67,2,1.31,2.84,1.94.94.65,2.04,1.38,3.27,2.19,1.03.77,2.34,1.72,3.95,2.83,1.6,1.12,3.48,2.46,5.64,4.03-2.38-.09-4.19.21-5.43.92-.71.28-1.29.64-1.71,1.09-.98.98-2.15,2.33-3.51,4.04-1.36,1.71-3.18,3.3-5.46,4.75s-5.17,2.56-8.66,3.31c-3.49.75-7.9.65-13.24-.32-5.55-1.01-9.52-2.87-11.91-5.58-2.4-2.71-3.94-5.58-4.62-8.62-.69-3.04-.84-5.93-.45-8.67.39-2.74.64-4.6.74-5.55.1-.96.62-3.29,1.55-7.01.93-3.71,2-7.8,3.21-12.27,1.21-4.47,2.38-8.78,3.52-12.94,1.14-4.16,1.93-7.22,2.36-9.19.23-1.04.52-2.11.88-3.23.21-.93.46-1.94.75-3.02.29-1.08.56-2.14.79-3.17l-22.54-5.16,1.03-9.08,22.59,5.66c.04-1.19.05-2.3,0-3.35-.04-1.04-.1-1.9-.17-2.57-.15-.79-.32-1.49-.52-2.08-.3-.61-.64-1.29-1.02-2.02-.41-.63-.93-1.46-1.58-2.47-.65-1.01-1.43-2.17-2.34-3.46Z"/>
      <path d="M1016.54,89.65c2.66.76,5.27,2.04,7.86,3.83,2.58,1.79,4.99,3.81,7.22,6.06,2.23,2.25,4.2,4.53,5.91,6.84,1.71,2.32,3.06,4.45,4.05,6.39,1.76,3.49,2.46,7.7,2.09,12.63-.37,4.93-1.55,9.73-3.56,14.41-2.01,4.68-4.75,8.84-8.23,12.48-3.48,3.65-7.51,5.92-12.08,6.81-3.27.61-6.4.93-9.4.95-2.99.03-5.83-.12-8.5-.45-2.67-.33-5.13-.81-7.38-1.46-2.25-.65-4.18-1.26-5.78-1.83-3.01-1.09-5.89-3.08-8.65-5.97-2.76-2.89-5.19-6.19-7.28-9.89-2.09-3.7-3.67-7.55-4.72-11.56-1.06-4.01-1.36-7.61-.88-10.79.59-4.36,1.75-8.79,3.48-13.27,1.73-4.48,4.46-8.29,8.18-11.42,3.72-3.13,8.63-5.21,14.73-6.22,6.1-1.01,13.75-.2,22.94,2.45ZM994.39,147.66c1.06.53,2.68.69,4.84.48,2.16-.21,4.43-.91,6.83-2.1,2.39-1.19,4.71-2.93,6.97-5.21,2.26-2.28,4.1-5.32,5.52-9.11,1.39-3.69,2.42-7.16,3.07-10.4.65-3.24.97-6.16.94-8.77-.03-2.61-.28-4.81-.76-6.61-.48-1.8-1.14-3.15-1.99-4.06-1.47-1.42-3.35-2.76-5.64-4.03-2.29-1.27-4.42-1.74-6.39-1.42-.94.17-2.21.75-3.81,1.72-1.61.98-3.31,2.28-5.11,3.92-1.8,1.64-3.55,3.6-5.25,5.87-1.71,2.28-3.16,4.73-4.36,7.38-1.2,2.64-2.13,5.58-2.78,8.82-.66,3.24-.88,6.41-.66,9.52.21,3.1.98,5.92,2.3,8.46,1.32,2.54,3.41,4.38,6.29,5.54Z"/>
    </g>
    <g>
      <path d="M0,283.94c4.48-1.28,8.5-2.51,12.03-3.69,3.53-1.18,6.58-2.16,9.15-2.94,2.95-.94,5.55-1.8,7.81-2.6,2.33-.98,5.27-2.29,8.84-3.95,3.05-1.43,6.91-3.29,11.58-5.56,4.67-2.27,10.37-5.2,17.08-8.78-2.55,3.35-4.48,6.45-5.79,9.29-1.32,2.84-2.23,5.28-2.74,7.32-.66,2.41-.93,4.66-.82,6.74.65,2.62,2.79,7.35,6.43,14.19,1.51,2.87,3.47,6.34,5.87,10.43,2.4,4.09,5.33,8.87,8.77,14.34,3.45,5.48,7.52,11.71,12.21,18.72,4.7,7.01,10.05,14.94,16.07,23.82-.52-8.46-1.14-15.92-1.88-22.38-.74-6.46-1.4-12-1.98-16.63-.67-5.2-1.31-9.8-1.93-13.8-.67-4.13-1.61-9.44-2.82-15.93-1.09-5.48-2.48-12.58-4.17-21.3-1.69-8.72-3.79-19.48-6.28-32.28l7.39-1.97c4.51,8.91,8.59,16.7,12.24,23.38,3.65,6.68,6.76,12.37,9.35,17.07,2.91,5.47,5.49,10.17,7.75,14.09,2.09,3.53,4.69,7.54,7.79,12.01,2.64,3.76,5.94,8.34,9.9,13.75,3.95,5.41,8.67,11.38,14.15,17.9-1.53-10.16-2.89-19.25-4.06-27.28-1.17-8.03-2.25-15.11-3.23-21.24-.98-6.13-1.83-11.4-2.55-15.82-.72-4.41-1.33-8.12-1.82-11.1-1.3-7.06-2.28-11.74-2.95-14.05-1.16-2.4-2.75-4.55-4.76-6.44-1.78-1.69-4.15-3.35-7.12-4.99-2.97-1.64-6.82-2.84-11.55-3.59,7.99-3.06,14.5-5.6,19.5-7.63,5-2.03,8.99-3.67,11.97-4.92l7.76-3.26,6.98-2.94c2.58-1.09,5.97-2.55,10.14-4.38,4.17-1.83,9.51-4.26,15.99-7.3-4.44,5.37-7.88,10.02-10.34,13.94-2.46,3.93-4.3,7.14-5.53,9.63-1.46,3.05-2.4,5.5-2.84,7.36.05,3.02.82,9.55,2.3,19.58.6,4.31,1.46,9.62,2.59,15.92,1.13,6.3,2.51,13.82,4.13,22.57,1.63,8.75,3.58,18.92,5.88,30.51,2.29,11.59,4.96,24.81,8.01,39.66l-35.02,10.63-39.73-54.28c2.42,11.92,4.42,21.54,5.98,28.87,1.56,7.33,2.81,13.01,3.74,17.03,1.13,4.85,2.06,8.34,2.8,10.46.63,1.87,1.24,3.67,1.82,5.4.47,1.48.96,3.1,1.47,4.86.51,1.76.94,3.41,1.28,4.94l-34.33,14.44c-9.57-13.32-18.05-25.08-25.46-35.28-7.41-10.2-13.95-19.13-19.6-26.79-5.66-7.66-10.48-14.15-14.47-19.48-3.99-5.32-7.41-9.74-10.26-13.26-6.5-8.22-10.8-13.18-12.89-14.89-1.34-.65-3.02-1.39-5.04-2.22-1.65-.67-3.72-1.52-6.2-2.53-2.48-1.01-5.34-2.12-8.6-3.34Z"/>
      <path d="M247.48,248.11c3.51-.99,7.34-1.37,11.48-1.15,4.14.22,8.24.82,12.3,1.78,4.06.97,7.86,2.16,11.39,3.57,3.53,1.41,6.52,2.86,8.99,4.36,4.4,2.7,8.11,6.94,11.12,12.72,3.01,5.79,5.01,12,6.01,18.64.99,6.64.8,13.22-.57,19.72-1.38,6.51-4.32,11.85-8.82,16.03-3.25,2.96-6.54,5.49-9.89,7.59-3.34,2.11-6.62,3.91-9.85,5.39-3.23,1.49-6.32,2.65-9.29,3.49-2.97.84-5.56,1.49-7.75,1.96-4.13.87-8.75.64-13.86-.69-5.11-1.33-10.12-3.34-15.03-6.04-4.91-2.7-9.35-5.93-13.33-9.69-3.97-3.76-6.8-7.59-8.48-11.49-2.37-5.31-4.14-11.08-5.31-17.3-1.17-6.23-.75-12.39,1.25-18.49,2-6.1,6.07-11.83,12.21-17.21,6.14-5.37,15.28-9.76,27.44-13.18ZM262.9,328.58c1.56-.15,3.48-1.09,5.76-2.82,2.28-1.73,4.35-4.1,6.2-7.1,1.85-3,3.25-6.56,4.21-10.69.95-4.13.91-8.81-.13-14.06-1-5.11-2.26-9.71-3.78-13.8-1.52-4.09-3.19-7.59-5.03-10.5-1.84-2.9-3.65-5.2-5.43-6.89s-3.47-2.74-5.04-3.17c-2.64-.57-5.68-.77-9.13-.6-3.45.17-6.17,1.12-8.16,2.84-.93.85-1.96,2.37-3.08,4.58-1.13,2.21-2.13,4.86-3.01,7.95-.88,3.09-1.49,6.5-1.82,10.24-.33,3.74-.26,7.5.23,11.3.48,3.8,1.49,7.74,3,11.83,1.51,4.09,3.47,7.8,5.87,11.14,2.39,3.34,5.21,5.97,8.45,7.9,3.24,1.93,6.87,2.55,10.9,1.85Z"/>
      <path d="M330.16,299.57c.15-4.73.16-8.9.01-12.51-.15-3.61-.29-6.61-.43-9.01-.22-2.81-.5-5.18-.84-7.12-.56-2.32-1.16-5.1-1.81-8.33-.65-3.23-1.37-6.45-2.15-9.66-.79-3.21-1.55-6.06-2.28-8.57-.73-2.5-1.4-4.27-2.02-5.3-.75-1-1.72-2.04-2.91-3.11-2.35-2-5.59-3.77-9.71-5.32,3.05-1.26,5.68-2.33,7.87-3.22,2.19-.89,4.01-1.68,5.46-2.36,1.56-.85,2.92-1.59,4.09-2.23,1.03-.61,2.27-1.26,3.71-1.95,1.19-.5,2.65-1.11,4.37-1.85,1.72-.73,3.7-1.59,5.96-2.56l2.74,18.96c3.48-6.03,7.27-10.77,11.36-14.21,4.09-3.43,8.04-6.06,11.84-7.88,4.31-2.19,8.67-3.69,13.09-4.47,5.57-.71,10.88-.73,15.91-.06,5.04.67,9.49,1.69,13.37,3.06,3.88,1.37,7.12,2.97,9.72,4.78,2.6,1.82,4.26,3.51,4.97,5.1,2.62,5.09,3.91,9.95,3.89,14.59-.03,4.64-.32,9.18-.88,13.62-.56,4.45-.92,8.82-1.08,13.12-.16,4.3.95,8.74,3.34,13.3.77,1.14,1.55,2.29,2.32,3.43.75,1.01,1.64,1.99,2.66,2.94,1.03.96,2.15,1.68,3.38,2.17-1.54.14-3.08.3-4.61.5-1.53.2-2.93.35-4.2.43-1.54.14-2.95.24-4.22.33-1.41.11-3.28.37-5.63.79-4.01.72-10.18,2.03-18.53,3.95.72-3.12,1.29-5.75,1.69-7.89.4-2.14.77-3.88,1.1-5.22.28-1.62.48-2.86.61-3.74.94-4.3,1.13-9.03.56-14.21-.57-5.17-1.87-10.28-3.91-15.33-.73-1.72-1.81-3.74-3.22-6.05-1.41-2.31-3.12-4.5-5.13-6.57-2.01-2.06-4.23-3.73-6.66-5.01-2.44-1.27-5.06-1.8-7.87-1.59-2.81.22-5.76,1.46-8.85,3.72-3.09,2.26-6.17,5.95-9.25,11.05-2.23,4.25-3.7,9.21-4.4,14.89-.71,4.83-.73,10.71-.06,17.64.67,6.93,2.92,14.76,6.76,23.48-1.98.07-3.81.22-5.48.44-1.67.23-3.07.37-4.2.43-1.41.11-2.67.19-3.8.25-1.24.22-2.64.4-4.18.53-1.38.25-3.11.52-5.2.82-2.08.3-4.52.63-7.3.98Z"/>
      <path d="M537.32,132.8c2.67-.09,5.54-.26,8.61-.52,2.65-.23,5.7-.45,9.13-.67,3.43-.22,7.02-.63,10.77-1.24-3.22,1.83-5.97,4.31-8.23,7.46-2.27,3.15-4.04,6.26-5.33,9.32-1.66,3.66-2.96,7.43-3.89,11.31-.51,2.3-.73,6.29-.67,11.99.06,5.7.31,12.33.75,19.89.43,7.56,1.01,15.54,1.73,23.93.72,8.39,1.47,16.38,2.26,23.99.79,7.61,1.57,14.33,2.36,20.18.78,5.85,1.48,9.94,2.11,12.28.8,2.75,1.72,5.34,2.78,7.79.89,2.18,1.99,4.37,3.31,6.58,1.31,2.21,2.87,3.95,4.67,5.2l-20.56,11.47c-1.25-1.44-2.29-2.94-3.13-4.48-.84-1.55-1.52-2.93-2.04-4.15-.69-1.49-1.16-2.86-1.41-4.1-.42-1.65-.86-3.48-1.31-5.48-.45-2-.94-3.93-1.44-5.79-.51-1.86-.89-3.41-1.14-4.65-.25-1.25-.31-2.01-.2-2.31.11-.29-.62,1-2.2,3.88-1.58,2.88-4.01,6.25-7.27,10.12-3.26,3.87-7.34,7.67-12.22,11.39-4.89,3.72-10.52,6.28-16.87,7.67-6.5,1.4-12.65.66-18.46-2.22-5.81-2.88-10.93-7.2-15.36-12.94-4.43-5.75-8.01-12.55-10.72-20.41-2.71-7.86-4.22-16.01-4.51-24.43-.2-5.61.63-10.72,2.49-15.31,1.86-4.59,4.36-8.68,7.51-12.26,3.14-3.57,6.68-6.69,10.6-9.35,3.92-2.66,7.81-4.92,11.67-6.8,3.85-1.88,7.49-3.31,10.93-4.31,3.43-1,6.19-1.72,8.26-2.18,2.5-.35,5.4-.18,8.7.52,2.87.6,6.23,1.72,10.11,3.36,3.87,1.64,8.28,4.22,13.23,7.74-2.03-13.9-3.76-25.05-5.18-33.45-1.42-8.39-2.67-14.8-3.75-19.21-1.15-5.25-2.09-8.83-2.82-10.74-.82-1.34-1.85-2.66-3.08-3.96-1.08-1.03-2.4-2.08-3.96-3.15-1.57-1.06-3.36-1.86-5.38-2.39,3.69.39,7.23.58,10.61.57,3.38,0,6.47.01,9.3.05,3.24,0,6.33-.05,9.28-.16ZM491.38,215.49c-2.57,1.21-4.56,3.07-5.96,5.58-1.41,2.52-2.46,5.46-3.15,8.82-.7,3.37-1.07,6.92-1.1,10.65-.03,3.73.06,7.32.29,10.75.22,3.43.45,6.54.69,9.34.24,2.8.42,4.89.54,6.29.07.84.37,2.33.91,4.46.53,2.14,1.53,4.3,2.98,6.5s3.41,4.11,5.87,5.73c2.46,1.62,5.65,2.26,9.56,1.93,3.19-.55,6.52-1.96,9.99-4.23,3.07-1.95,6.51-4.95,10.32-9.01,3.8-4.05,7.79-9.78,11.94-17.17-.66-4.45-1.15-8.14-1.47-11.07-.32-2.93-.63-5.29-.92-7.1-.32-2.08-.53-3.76-.64-5.01l-.27-3.15c-.07-.84-.15-1.75-.23-2.73-.08-.98-.09-1.89-.02-2.74-4.15-2.46-7.82-4.58-11-6.35-3.18-1.77-6.25-3.06-9.2-3.86-2.96-.8-5.93-1.04-8.93-.72-3,.33-6.4,1.36-10.19,3.09Z"/>
      <path d="M625.72,258.02c3.93-.04,7.57-.49,10.93-1.36,2.8-.73,5.49-1.91,8.07-3.55,2.58-1.63,4.28-4.07,5.09-7.31,2.81.54,5.2.97,7.17,1.3,1.97.33,3.65.63,5.06.9,1.55.41,2.88.68,4,.8,1.12.27,2.46.54,4.01.8,1.4.27,3.12.57,5.16.9,2.04.33,4.46.77,7.27,1.3-2.11-.26-4.25-.03-6.41.69-2.17.72-4.23,1.51-6.19,2.37-2.24,1-4.33,2.22-6.28,3.63-1.25.85-2.68,2.13-4.28,3.83-1.6,1.7-3.86,3.33-6.79,4.9-2.93,1.57-6.81,2.9-11.64,4-4.83,1.1-11.03,1.54-18.61,1.33-9.12-.2-16.78-1.77-22.98-4.73-6.2-2.96-11.21-6.63-15.04-11.01s-6.61-9.16-8.34-14.34c-1.73-5.17-2.69-10-2.87-14.49-.18-4.49,1.11-9.2,3.87-14.13,2.76-4.93,6.68-9.46,11.76-13.57,5.08-4.11,11.26-7.5,18.53-10.17,7.27-2.66,15.25-4.03,23.95-4.11,5.05-.05,9.72.51,14.01,1.66,4.29,1.15,8.23,2.7,11.83,4.63,3.59,1.93,6.73,4.11,9.42,6.54,2.69,2.43,4.95,4.9,6.8,7.41,1.85,2.65,3.42,5.44,4.71,8.37,1.14,2.51,2.08,5.38,2.82,8.6.73,3.22.97,6.51.72,9.88-10.66.38-19.25.67-25.77.87-6.52.2-11.61.32-15.25.35l-9.47.09-7.15.07c-2.53.02-5.82.13-9.89.3-4.07.18-9.04.44-14.93.77.75,5.6,2.58,9.9,5.48,12.89,2.9,2.99,5.97,5.24,9.21,6.75,3.66,1.65,7.67,2.6,12.02,2.83ZM606.43,220.33c4.49.24,8.24.42,11.26.53,3.02.11,5.51.23,7.47.35,2.1.12,3.79.18,5.05.16l5.26-.05c3.5-.03,10.03-.3,19.56-.81-.48-6.17-1.82-10.85-4.02-14.06-2.21-3.21-4.51-5.57-6.9-7.09-2.82-1.66-5.92-2.61-9.29-2.86-9.12.23-15.87,2.18-20.25,5.87-4.38,3.69-7.1,9.68-8.15,17.96Z"/>
      <path d="M694.2,191.59c2.65.34,5.06.56,7.23.65,2.17.09,4.03.13,5.58.1,1.83,0,3.45-.02,4.86-.06,2.12-.12,4.31-.31,6.58-.56,1.98-.13,4.07-.36,6.28-.69,2.2-.33,4.38-.76,6.53-1.3-1,2.04-1.83,3.8-2.51,5.3-.68,1.5-1.2,2.8-1.56,3.89-.51,1.23-.8,2.26-.87,3.1-.21.97-.37,2.15-.48,3.55-.32,2.37-.61,6.21-.87,11.54,7.74-5.75,14.23-10.18,19.46-13.31,5.23-3.12,9.38-5.55,12.47-7.29,3.66-1.97,6.5-3.24,8.51-3.79,5.24-.45,9.69,1.08,13.37,4.59,1.57,1.53,3.04,3.5,4.41,5.92,1.37,2.42,2.46,5.57,3.3,9.43.83,3.86,1.33,8.43,1.5,13.72.16,5.29-.23,11.55-1.2,18.79-2.96.06-5.6.14-7.93.25-2.33.11-4.27.17-5.82.2-1.84.15-3.53.16-5.07.04l-5.71.2c-1.98.13-4.41.2-7.29.19-2.88,0-6.37.05-10.46.17,6.23-4.31,10.35-8.19,12.37-11.63,2.01-3.44,2.97-6.35,2.87-8.75-.08-2.68-1.17-5.08-3.26-7.21-2.54-1.74-5.37-2.51-8.48-2.32-2.68.08-5.85,1.04-9.5,2.87-3.66,1.84-7.66,5.48-12,10.92-.39,8.97-.63,16.41-.72,22.31-.09,5.9-.14,10.68-.13,14.34.1,4.23.21,7.54.31,9.94.26,2.13.93,4.43,2.01,6.9.83,2.03,2.07,4.31,3.71,6.82,1.64,2.52,3.84,5.07,6.6,7.67-6.14-.74-11.17-1.12-15.11-1.13-2.39-.04-4.5-.06-6.33-.05-1.98.13-4.1.25-6.36.37-1.98.13-4.28.28-6.89.43-2.62.15-5.48.33-8.58.52,1.23-1.46,2.28-3.17,3.13-5.15.85-1.97,1.55-3.86,2.11-5.64.71-2.06,1.3-4.19,1.75-6.41.29-1.95.61-4.88.98-8.79.36-3.91.63-8.36.79-13.34.16-4.98.3-10.17.43-15.58.12-5.4.15-10.5.09-15.29-.06-4.79-.21-8.98-.43-12.59-.22-3.6-.56-6.12-1.01-7.57-.58-1.73-1.29-3.47-2.14-5.22-.72-1.6-1.65-3.32-2.78-5.17-1.13-1.84-2.39-3.8-3.78-5.88Z"/>
      <path d="M791.44,306.86c1.66-1.91,3.02-3.72,4.08-5.42,1.07-1.7,1.96-3.15,2.67-4.33.75-1.46,1.34-2.8,1.78-4.02.24-.82.62-3.24,1.14-7.28.51-4.03,1.06-9.12,1.63-15.28.57-6.15,1.24-13.06,2-20.74.76-7.68,1.48-15.51,2.14-23.48.66-7.98,1.29-15.74,1.9-23.3.61-7.56,1.16-14.38,1.65-20.47.49-6.09.85-11.1,1.06-15.03.22-3.93.29-6.18.22-6.76-.17-.87-.55-1.77-1.14-2.69-1.18-1.85-3.34-3.75-6.49-5.7,7.33-.9,12.94-1.67,16.84-2.31,2.29-.27,4.32-.58,6.06-.93,1.6-.36,3.2-.72,4.8-1.09,1.32-.4,2.8-.88,4.43-1.45,1.63-.57,3.13-1.26,4.51-2.08-1.21,3.95-2.26,7.77-3.16,11.48-.9,3.7-1.69,7.14-2.37,10.3-.74,3.58-1.32,7.04-1.75,10.38-1.57,6.73-2.89,14.09-3.98,22.08-1.09,7.99-2.08,16.1-2.99,24.33-.91,8.23-1.65,16.26-2.22,24.11-.57,7.85-1.02,14.97-1.34,21.36-.32,6.4-.52,11.81-.58,16.26-.07,4.44-.05,7.31.07,8.6.29,2.16.59,4.25.9,6.27.34,1.74.74,3.59,1.2,5.56.46,1.97,1.1,3.57,1.93,4.81l-20.25-2.58c-1.81-.23-3.56-.38-5.24-.46-1.55-.06-3.17-.12-4.85-.19-1.69-.08-3.25-.06-4.67.04Z"/>
      <path d="M863,224.28c.84-.7,1.59-2.16,2.22-4.4s1.67-4.72,3.12-7.44c1.44-2.73,3.56-5.46,6.37-8.22,2.8-2.75,6.95-5.04,12.43-6.86,5.34-1.85,10.34-2.62,15-2.31,4.65.31,8.96,1.33,12.91,3.08,3.95,1.75,7.56,4,10.82,6.75,3.26,2.76,6.17,5.66,8.74,8.71,1.76,2.04,2.96,4.73,3.62,8.07.66,3.34.96,7,.93,10.99-.04,3.99-.28,8.12-.73,12.39-.45,4.27-.98,8.38-1.58,12.34-.61,3.95-1.18,7.56-1.72,10.81-.54,3.25-.8,5.95-.78,8.1-.02,3.14.46,5.9,1.43,8.3.97,2.4,2.15,4.47,3.53,6.23s2.82,3.21,4.32,4.35c1.5,1.14,2.83,2.03,3.99,2.68.75.57,1.45.99,2.12,1.26,1.27.81,2.24.99,2.89.55-1.19,1.78-2.26,3.29-3.21,4.53-.95,1.25-1.72,2.32-2.32,3.2-.76,1-1.41,1.8-1.95,2.41-.57.75-1.2,1.42-1.88,2-.54.61-1.24,1.27-2.08,1.96-.85.7-1.7,1.46-2.57,2.3-1.66-1.03-3.2-2.17-4.6-3.44-1.4-1.26-2.65-2.43-3.73-3.49-1.34-1.25-2.53-2.48-3.59-3.67-1.06-1.2-2.02-2.52-2.89-3.97-.76-1.28-1.54-2.65-2.33-4.08s-1.4-2.97-1.8-4.62c-1.17,1.64-3.61,3.82-7.34,6.54s-8.32,4.96-13.79,6.71c-5.47,1.75-11.58,2.56-18.34,2.43-6.76-.13-13.81-2.25-21.18-6.35-3.24-1.75-6.17-3.98-8.8-6.69-2.63-2.71-4.73-5.78-6.29-9.22-1.57-3.43-2.42-7.2-2.58-11.3-.16-4.1.7-8.47,2.58-13.11,1.87-4.64,4.37-8.38,7.47-11.22,3.11-2.84,6.58-4.97,10.41-6.39,3.83-1.42,7.99-2.27,12.48-2.57,4.48-.3,9.03-.22,13.66.22,3.61.54,7.15,1.42,10.63,2.65,2.93,1.12,5.91,2.72,8.95,4.79s5.45,4.77,7.25,8.11c1.24-7.33,2.1-13.2,2.57-17.61.47-4.41.79-7.81.96-10.2-.03-2.86-.15-4.88-.36-6.06-.51-1.09-1.02-2.33-1.55-3.72-.53-1.38-1.24-2.7-2.15-3.94-.91-1.24-2.12-2.36-3.65-3.36-1.52-1-3.4-1.64-5.63-1.92-2.37-.3-4.35-.03-5.93.81-1.59.84-2.9,1.92-3.93,3.22-1.03,1.3-1.77,2.77-2.22,4.4-.45,1.63-.66,3.09-.61,4.38.12.88.36,1.85.73,2.92.39.93.98,1.97,1.77,3.12.78,1.15,1.94,2.22,3.46,3.22-3.25-.19-6.13-.41-8.65-.67-2.52-.26-4.7-.42-6.55-.49-2.12-.11-3.95-.24-5.49-.39-1.54-.15-3.39-.21-5.53-.19-1.84-.06-4.12-.13-6.81-.21-2.7-.08-5.84-.1-9.41-.06,1.01-.81,1.94-1.59,2.8-2.36.86-.77,1.63-1.44,2.31-2.03.71-.72,1.4-1.38,2.08-1.96ZM889.38,254.74c-2.51-.33-5.1-.21-7.78.35-2.68.57-5.16,1.6-7.43,3.09-2.28,1.5-4.3,3.33-6.07,5.49-1.77,2.17-2.92,4.7-3.47,7.59s-.3,5.55.75,7.96c1.04,2.41,2.64,4.53,4.79,6.36,2.15,1.83,4.61,3.16,7.39,3.96,2.77.81,5.62,1.06,8.53.75,2.8-.47,5.57-1.55,8.32-3.25,2.75-1.69,5.19-3.66,7.32-5.9,2.13-2.24,3.79-4.57,4.96-6.99,1.17-2.42,1.63-4.51,1.4-6.27-.43-3.79-2.44-6.78-6.02-8.95-3.59-2.18-7.82-3.58-12.69-4.21Z"/>
      <path d="M957.85,306.03c2.25-4.16,4.11-7.89,5.6-11.18,1.48-3.29,2.69-6.04,3.64-8.25,1.06-2.61,1.87-4.86,2.43-6.74.54-2.33,1.24-5.08,2.11-8.26.86-3.18,1.66-6.38,2.39-9.6.73-3.22,1.33-6.11,1.79-8.68.46-2.57.65-4.45.57-5.65-.22-1.23-.63-2.6-1.21-4.09-1.21-2.84-3.31-5.87-6.31-9.1,3.29.24,6.12.45,8.48.63,2.36.18,4.34.29,5.94.32,1.77-.06,3.33-.12,4.65-.16,1.19-.09,2.59-.11,4.19-.08,1.29.09,2.87.19,4.74.3,1.87.11,4.02.24,6.47.37l-6.02,18.19c5.81-3.84,11.32-6.39,16.51-7.64,5.19-1.25,9.9-1.83,14.12-1.76,4.84-.03,9.41.58,13.71,1.85,5.3,1.86,10.06,4.21,14.26,7.06,4.21,2.85,7.74,5.76,10.59,8.72,2.86,2.96,5.04,5.84,6.56,8.62,1.52,2.79,2.24,5.05,2.17,6.78.07,5.72-.95,10.65-3.04,14.79-2.1,4.14-4.39,8.07-6.88,11.79-2.49,3.73-4.76,7.48-6.83,11.26-2.07,3.78-3.05,8.24-2.96,13.39.18,1.37.36,2.74.54,4.11.22,1.24.58,2.51,1.07,3.82.49,1.32,1.17,2.47,2.05,3.46-1.44-.57-2.89-1.11-4.35-1.61-1.46-.5-2.78-1-3.95-1.49-1.44-.57-2.75-1.1-3.92-1.59-1.31-.53-3.1-1.13-5.39-1.81-3.9-1.15-10.02-2.73-18.34-4.75,2.04-2.47,3.72-4.57,5.04-6.3,1.31-1.73,2.42-3.13,3.32-4.18.97-1.32,1.71-2.35,2.22-3.07,2.76-3.42,5.05-7.58,6.85-12.46,1.8-4.88,2.92-10.03,3.35-15.46.11-1.87.05-4.15-.17-6.85-.23-2.7-.78-5.42-1.65-8.16-.87-2.74-2.12-5.23-3.72-7.46-1.61-2.23-3.72-3.87-6.33-4.94-2.61-1.06-5.8-1.27-9.58-.63-3.77.64-8.18,2.56-13.21,5.76-3.9,2.8-7.42,6.59-10.59,11.36-2.79,4-5.44,9.26-7.93,15.76-2.5,6.5-3.99,14.51-4.45,24.02-1.81-.82-3.5-1.51-5.1-2.05-1.59-.54-2.91-1.04-3.95-1.49-1.31-.53-2.48-1.02-3.51-1.47-1.21-.36-2.54-.82-3.98-1.39-1.35-.4-3.02-.92-5.02-1.59-2-.66-4.33-1.46-6.97-2.38Z"/>
      <path d="M1219.8,252.99c2.39,1.18,5.01,2.37,7.85,3.59,2.45,1.05,5.24,2.28,8.37,3.7,3.13,1.42,6.49,2.74,10.09,3.97-3.7.1-7.29,1-10.77,2.71s-6.51,3.62-9.09,5.72c-3.19,2.45-6.1,5.17-8.75,8.15-1.53,1.79-3.6,5.21-6.23,10.27-2.62,5.06-5.52,11.03-8.7,17.91-3.17,6.88-6.42,14.19-9.73,21.93-3.31,7.74-6.41,15.15-9.29,22.23-2.88,7.08-5.35,13.39-7.41,18.91-2.06,5.53-3.37,9.47-3.92,11.83-.59,2.8-.99,5.53-1.21,8.18-.24,2.34-.3,4.79-.18,7.36.12,2.57.68,4.83,1.67,6.78l-23.54.45c-.43-1.86-.64-3.67-.65-5.43-.01-1.76.04-3.3.15-4.63.09-1.64.32-3.07.69-4.28.4-1.66.88-3.48,1.42-5.46.54-1.98,1.02-3.91,1.45-5.79.42-1.88.82-3.43,1.19-4.64.37-1.22.67-1.92.91-2.13.24-.2-1.02.59-3.77,2.39-2.75,1.8-6.48,3.64-11.17,5.52-4.7,1.88-10.08,3.32-16.15,4.3-6.07.99-12.24.6-18.5-1.17-6.39-1.82-11.47-5.37-15.24-10.64-3.77-5.28-6.26-11.49-7.47-18.65-1.21-7.16-1.17-14.84.14-23.05,1.3-8.21,3.81-16.11,7.5-23.68,2.46-5.05,5.6-9.16,9.4-12.34,3.8-3.18,7.93-5.61,12.39-7.29,4.46-1.68,9.04-2.77,13.76-3.27,4.71-.5,9.21-.67,13.5-.52,4.28.16,8.17.6,11.67,1.33,3.5.74,6.27,1.39,8.32,1.96,2.38.87,4.85,2.38,7.43,4.56,2.25,1.88,4.69,4.45,7.34,7.72,2.64,3.27,5.32,7.62,8.03,13.05,4.75-13.22,8.47-23.88,11.16-31.96,2.69-8.08,4.6-14.32,5.72-18.72,1.45-5.18,2.31-8.78,2.57-10.8-.1-1.56-.38-3.21-.86-4.94-.46-1.42-1.13-2.96-2.02-4.64-.89-1.67-2.09-3.22-3.62-4.64,3.07,2.08,6.11,3.91,9.09,5.49,2.98,1.58,5.71,3.06,8.18,4.42,2.85,1.53,5.61,2.94,8.26,4.22ZM1140.36,304.35c-2.84-.15-5.47.56-7.89,2.12-2.42,1.56-4.74,3.66-6.93,6.3-2.2,2.64-4.2,5.61-5.98,8.88-1.79,3.28-3.39,6.48-4.8,9.62-1.42,3.13-2.68,5.99-3.78,8.57-1.11,2.58-1.93,4.52-2.48,5.8-.33.77-.76,2.23-1.3,4.37-.54,2.14-.67,4.52-.42,7.14.25,2.62,1.08,5.23,2.49,7.82,1.41,2.59,3.92,4.65,7.53,6.2,3.07,1.01,6.67,1.33,10.8.96,3.63-.28,8.08-1.31,13.34-3.1,5.26-1.79,11.47-4.97,18.62-9.54,1.51-4.24,2.81-7.72,3.91-10.46,1.09-2.74,1.93-4.97,2.53-6.7.7-1.99,1.3-3.56,1.79-4.72l1.24-2.9c.33-.77.69-1.61,1.08-2.51.39-.9.81-1.71,1.27-2.43-2.51-4.12-4.75-7.71-6.72-10.77-1.97-3.06-4.07-5.64-6.3-7.73-2.23-2.1-4.75-3.71-7.54-4.83-2.8-1.12-6.29-1.81-10.44-2.07Z"/>
    </g>
  </g>
</svg>